<svg width="144" height="28" viewBox="0 0 144 28" fill="none" xmlns="http://www.w3.org/2000/svg">
<path d="M3.72241 0H0V28H3.72241V0Z" fill="#F5F5F5"/>
<path d="M6.41348 0H5.79785V28H6.41348V0Z" fill="#F5F5F5"/>
<path d="M8.72647 0H8.11084V28H8.72647V0Z" fill="#F5F5F5"/>
<path d="M21.1169 0H10.73V28H21.1169V0Z" fill="#F5F5F5"/>
<path d="M25.147 0H23.3359V28H25.147V0Z" fill="#F5F5F5"/>
<path d="M28.3618 0H26.0854V28H28.3618V0Z" fill="#F5F5F5"/>
<path d="M30.0007 0H29.6284V28H30.0007V0Z" fill="#F5F5F5"/>
<path d="M31.4108 0H31.0386V28H31.4108V0Z" fill="#F5F5F5"/>
<path d="M38.9922 0H32.6426V28H38.9922V0Z" fill="#F5F5F5"/>
<path d="M41.4543 0H40.3447V28H41.4543V0Z" fill="#F5F5F5"/>
<path d="M46.0939 0H43.6528V28H46.0939V0Z" fill="#F5F5F5"/>
<path d="M47.8613 0H47.4604V28H47.8613V0Z" fill="#F5F5F5"/>
<path d="M49.3784 0H48.9775V28H49.3784V0Z" fill="#F5F5F5"/>
<path d="M57.5178 0H50.6958V28H57.5178V0Z" fill="#F5F5F5"/>
<path d="M60.1673 0H58.979V28H60.1673V0Z" fill="#F5F5F5"/>
<path d="M62.2783 0H60.7822V28H62.2783V0Z" fill="#F5F5F5"/>
<path d="M63.3523 0H63.1089V28H63.3523V0Z" fill="#F5F5F5"/>
<path d="M64.2829 0H64.0396V28H64.2829V0Z" fill="#F5F5F5"/>
<path d="M69.2507 0H65.0845V28H69.2507V0Z" fill="#F5F5F5"/>
<path d="M70.8752 0H70.145V28H70.8752V0Z" fill="#F5F5F5"/>
<path d="M76.8455 0H73.123V28H76.8455V0Z" fill="#F5F5F5"/>
<path d="M79.5375 0H78.9219V28H79.5375V0Z" fill="#F5F5F5"/>
<path d="M81.8495 0H81.2339V28H81.8495V0Z" fill="#F5F5F5"/>
<path d="M94.2405 0H83.8535V28H94.2405V0Z" fill="#F5F5F5"/>
<path d="M98.2715 0H96.4604V28H98.2715V0Z" fill="#F5F5F5"/>
<path d="M101.479 0H99.2095V28H101.479V0Z" fill="#F5F5F5"/>
<path d="M103.117 0H102.745V28H103.117V0Z" fill="#F5F5F5"/>
<path d="M104.536 0H104.164V28H104.536V0Z" fill="#F5F5F5"/>
<path d="M112.108 0H105.759V28H112.108V0Z" fill="#F5F5F5"/>
<path d="M114.578 0H113.468V28H114.578V0Z" fill="#F5F5F5"/>
<path d="M119.217 0H116.776V28H119.217V0Z" fill="#F5F5F5"/>
<path d="M120.985 0H120.584V28H120.985V0Z" fill="#F5F5F5"/>
<path d="M122.502 0H122.102V28H122.502V0Z" fill="#F5F5F5"/>
<path d="M126.289 0H123.819V28H126.289V0Z" fill="#F5F5F5"/>
<path d="M132.574 0H128.537V28H132.574V0Z" fill="#F5F5F5"/>
<path d="M135.395 0H133.906V28H135.395V0Z" fill="#F5F5F5"/>
<path d="M136.476 0H136.233V28H136.476V0Z" fill="#F5F5F5"/>
<path d="M137.406 0H137.163V28H137.406V0Z" fill="#F5F5F5"/>
<path d="M142.375 0H138.208V28H142.375V0Z" fill="#F5F5F5"/>
<path d="M144 0H143.27V28H144V0Z" fill="#F5F5F5"/>
</svg>
