<svg width="128" height="74" viewBox="0 0 128 74" fill="none" xmlns="http://www.w3.org/2000/svg">
<g clip-path="url(#clip0_69_3973)">
<path opacity="0.5" d="M127.988 68.158C127.988 71.3863 99.3351 74.0001 63.9878 74.0001C28.6405 74.0001 0 71.3771 0 68.158C0 64.9389 28.6527 62.3159 64 62.3159C99.3473 62.3159 128 64.9297 128 68.158H127.988Z" fill="#F3F3F3"/>
<path d="M56.1181 45.179C55.9779 47.2583 54.5456 53.3542 54.3904 54.0163C54.3904 54.0261 54.3854 54.0359 54.3854 54.0457C54.3854 54.0506 54.3854 54.0604 54.3803 54.0703C53.7393 56.6155 53.1985 59.818 53.0683 64.781L51.6611 65.2371L50.5644 64.8594L49.718 64.5701C49.673 61.966 48.0504 53.163 48.2658 48.4942C48.3008 47.7635 48.3809 47.1357 48.5162 46.6453C49.2573 44.0069 51.7612 42.6582 53.6642 42.0011C53.9046 41.9177 54.155 41.8736 54.3954 41.8687C54.7009 42.0354 54.9512 42.2021 55.1566 42.3542L54.9713 42.4719C54.9713 42.4719 55.5822 42.7122 55.9178 43.5851C55.9378 43.6391 55.9578 43.693 55.9728 43.7519C56.088 44.1197 56.1481 44.5905 56.1131 45.179H56.1181Z" fill="#FFD6BE"/>
<path d="M59.0546 67.5278C58.959 68.0004 58.6339 68.158 58.6339 68.158H49.4843C49.4126 67.9667 49.3552 67.7754 49.317 67.5785C49.2596 67.3028 49.231 67.0215 49.231 66.7346C49.231 66.1888 49.3409 65.6375 49.556 65.1424C49.5704 65.103 49.5895 65.0636 49.6086 65.0298L49.8667 64.4841C49.8667 64.4841 49.9719 63.9327 49.7711 63.3926C49.8189 63.3307 49.9098 63.297 50.0197 63.2914C50.23 63.2745 50.4978 63.3757 50.5981 63.612C50.6459 63.7246 50.6937 63.8258 50.7511 63.9102C51.5781 65.2493 53.2608 64.1522 53.2608 64.1522C54.4798 65.9356 57.0612 66.262 58.2419 66.3126C58.7725 66.3351 59.1789 66.9202 59.0546 67.5278Z" fill="#231538"/>
<path opacity="0.5" d="M56.123 43.0096C55.7914 43.7348 54.4752 46.2908 52.2612 46.7979C49.6799 47.3861 50.0676 50.9867 50.9756 52.6451C51.8123 54.1816 49.7207 60.1201 50.4808 64.2633C50.4247 64.1822 50.3686 64.096 50.3176 63.9946C50.2104 63.7765 49.9247 63.6903 49.7003 63.7055C49.4299 60.3077 48.0627 52.3306 48.2668 47.9186C49.7972 45.2309 52.2969 46.9247 56.0618 42.8423C56.0822 42.8981 56.1026 42.9539 56.1179 43.0147L56.123 43.0096Z" fill="#EAC2AC"/>
<path d="M58.9014 67.4015L48.3803 67.1841L48.2461 68.1578H59.0769L58.9014 67.4015Z" fill="white"/>
<path d="M50.2156 67.1842H49.2835C49.2485 66.9638 49.231 66.7389 49.231 66.5096C49.231 66.0733 49.2982 65.6326 49.4296 65.2368C49.6634 65.5471 50.2156 66.3657 50.2156 67.1842Z" fill="#3F2C59"/>
<path d="M53.1692 64.8133C53.1692 64.8133 52.7911 64.2221 53.0432 63.4103C52.9744 63.0573 52.0427 63.5074 52.2031 64.381C52.3635 65.2545 52.5429 65.2369 52.5429 65.2369L53.1692 64.8177V64.8133Z" fill="#231538"/>
<path d="M15.17 63.3991C14.835 64.853 15.0295 66.3636 15.5915 67.7556L15.7536 68.1577H12.6517C12.6517 68.1577 12.6193 68.1577 12.6031 68.1577C10.8306 67.3173 11.1224 62.4556 11.1224 62.4556C11.1224 62.4556 10.8684 62.2133 10.8306 62.0948C10.9278 60.9966 11.5439 59.6459 11.5439 59.6459L11.9978 59.5324C12.1816 59.486 12.3653 59.4551 12.5545 59.4293C12.8247 59.3984 13.1003 59.3881 13.3705 59.3984C14.0352 59.4345 14.7971 59.3984 15.1538 59.6252C15.5267 59.8676 15.6131 60.4347 15.5159 60.8523L15.1646 63.3991H15.17Z" fill="#231538"/>
<path d="M56.123 43.1063C56.0777 43.1546 56.0323 43.2077 55.982 43.2561C52.2667 47.1466 49.7999 45.5324 48.2897 48.0939C47.7711 48.9687 47.3684 50.3364 47.0613 52.5789C43.7588 52.4291 37.9846 52.0521 35.4775 51.1193C33.9118 50.5345 33.791 48.727 33.9219 47.4559C33.051 47.1901 32.4922 47.0065 32.4922 47.0065L33.5746 37.9736C33.5897 38.3458 34.0075 39.2689 37.6976 39.4815C37.763 39.351 37.9191 39.2544 38.6541 39.4815C38.6944 39.496 38.7296 39.5057 38.7699 39.5154C39.3237 39.525 39.9882 39.2882 40.6678 39.2689C48.7377 39.4235 52.604 40.5593 54.4516 41.5549C54.7587 41.7192 55.0104 41.8835 55.2168 42.0333C56.0273 42.6326 56.123 43.0966 56.123 43.0966V43.1063Z" fill="#7B5761"/>
<path d="M56.1179 43.1014C56.0726 43.1498 56.0273 43.2029 55.977 43.2512C52.2617 47.1418 49.7949 45.5276 48.2846 48.0891C47.7963 48.9203 47.4036 50.1817 47.1066 52.2116C47.0915 52.3324 47.0714 52.4532 47.0563 52.5789C46.5377 52.5547 45.9638 52.5257 45.3497 52.4919C42.9634 52.3517 39.9983 52.1101 37.7379 51.6945C36.8518 51.5301 36.0715 51.3417 35.4775 51.1193C33.9118 50.5345 33.791 48.727 33.9219 47.4559C33.051 47.1901 32.4922 47.0065 32.4922 47.0065L33.5796 37.9736C33.5947 38.3458 34.0125 39.2689 37.6976 39.4815C37.763 39.351 37.9191 39.2544 38.6541 39.4864C38.6944 39.5009 38.7347 39.5105 38.7699 39.5202C39.3237 39.5299 39.9882 39.293 40.6678 39.2737C48.7377 39.4284 52.604 40.5641 54.4516 41.5597C54.7587 41.724 55.0104 41.8883 55.2168 42.0382C56.0273 42.6375 56.123 43.0966 56.123 43.1014H56.1179Z" fill="#2C2C2C"/>
<path d="M25.6001 55.8012C25.6001 55.8012 25.8438 56.8291 28.3826 57.3835C30.9215 57.9378 30.4964 54.7087 30.4964 54.7087C30.4964 54.7087 30.3151 53.6054 29.7314 53.6054C29.1477 53.6054 27.0679 53.487 27.0679 53.6054C27.0679 53.7238 25.6001 55.8012 25.6001 55.8012Z" fill="#533741"/>
<path opacity="0.25" d="M56.1232 42.8423C56.0771 42.8924 56.031 42.9476 55.9797 42.9977C52.1982 47.0338 49.6875 45.3592 48.1503 48.0165C47.6533 48.8789 47.2536 50.1875 46.9513 52.2933C46.4286 52.3836 45.7523 52.4839 45.163 52.5791C42.7342 52.4337 39.7162 52.183 37.4155 51.7518C37.4668 49.8265 37.5846 47.9514 37.9535 46.8834C38.2559 46.021 38.4403 45.1687 38.5428 44.2813C38.5735 44.0205 38.5992 43.7598 38.6145 43.4891C40.3567 44.537 44.3329 46.4372 48.8984 45.3542C50.1999 45.0484 52.2751 45.9158 56.1181 42.8423H56.1232Z" fill="#533741"/>
<path d="M36.4259 57.2195C36.3518 57.7012 36.2727 58.1781 36.1887 58.65C36.1739 58.7385 36.159 58.8269 36.1442 58.9154C36.0553 59.4463 35.9466 60.0313 35.8329 60.6311C35.7884 60.8572 35.744 61.0882 35.6995 61.3193C35.4178 62.7891 35.1115 64.254 34.9336 65.1192C34.8298 65.6206 34.4246 66.0139 33.9107 66.0925C33.5154 66.1515 33.0707 66.1908 32.5963 66.2056C32.5815 66.2056 32.5667 66.2056 32.5518 66.2056C32.4827 66.2056 32.4184 66.2056 32.3492 66.2105H32.3344C32.2554 66.2105 32.1714 66.2105 32.0874 66.2105C26.4937 66.2253 16.6999 63.7477 13.9674 63.0251C13.8982 62.8186 13.8488 62.6072 13.8142 62.4057C13.6857 61.629 13.9822 60.8277 14.5998 60.3361C14.7827 60.1886 14.9309 59.9772 14.9556 59.6725C20.7123 59.5447 23.519 58.6942 25.8365 58.5418C25.8761 58.5418 25.9156 58.5418 25.9551 58.5369C26.1874 58.5222 26.4147 58.5172 26.642 58.5222C26.7111 58.5222 26.7803 58.5222 26.8495 58.5271C26.8149 58.3206 26.7853 58.1142 26.7606 57.9077C26.7457 57.8045 26.7309 57.7061 26.7161 57.6029C26.637 57.0228 26.5728 56.4428 26.5135 55.8529C26.4789 55.5235 26.4493 55.1892 26.4196 54.8451C27.2992 54.5403 28.8112 54.2405 30.259 55.0319C30.8767 55.3711 31.5438 55.7152 32.2257 56.0249C33.6192 56.6591 35.0967 57.1605 36.4308 57.2195H36.4259Z" fill="#FFD6BE"/>
<path d="M39.3482 43.6204C39.333 43.8757 39.3077 44.131 39.2774 44.3814C39.1712 45.234 38.989 46.0529 38.6957 46.8813C38.2808 48.0374 38.1898 50.1808 38.1443 52.2665C38.1038 54.2125 37.7042 57.2904 36.8847 60.3683C36.8138 60.3587 36.738 60.3491 36.657 60.3394C35.5694 60.1805 34.0063 59.7181 32.9592 59.2894C32.1144 58.9426 31.2848 58.5379 30.526 58.1382C30.3641 58.0563 30.2022 57.984 30.0404 57.9214C29.8127 57.8347 29.5902 57.7721 29.3676 57.7287C28.3306 57.5216 27.3492 57.7143 26.6865 57.9262C26.6562 57.9358 26.6258 57.9455 26.6005 57.9551C26.1199 58.1141 25.8265 58.273 25.8265 58.273C25.9631 53.567 25.5028 49.94 25.6191 46.8765C25.7051 44.603 26.1149 42.6426 27.3239 40.7689C27.3694 40.6966 27.42 40.6243 27.4655 40.5521C27.4908 40.5136 27.5212 40.475 27.5465 40.4317C27.5667 40.398 27.592 40.3691 27.6122 40.3353C27.7336 40.1668 27.8601 39.9934 27.9967 39.8151C28.0372 39.7621 28.0776 39.714 28.1181 39.661C28.1181 39.661 28.1181 39.6562 28.1232 39.6514C28.2294 39.5165 28.4064 39.4057 28.6341 39.3142C29.838 38.847 32.5646 38.8999 34.9624 39.0685C37.2944 39.2323 39.3077 39.502 39.3077 39.502C39.3077 39.5502 39.3077 39.6032 39.3128 39.6514C39.3381 40.1619 39.3583 40.6436 39.3684 41.1108C39.3937 42.0068 39.3937 42.8304 39.3381 43.6156L39.3482 43.6204Z" fill="#3A3A3A"/>
<path d="M67.3357 35.427C67.1088 35.5945 65.8215 35.7569 64.0311 35.8686C59.8141 36.1376 52.8252 36.1325 50.4282 35.2899C50.2802 35.3711 50.0583 35.4574 49.8807 35.4168C49.6341 35.361 49.5651 34.9955 49.5651 34.9955C49.5651 34.9955 49.3332 35.3458 48.9387 35.1884C48.6329 35.0666 48.7266 34.7519 48.8104 34.5844C47.0496 33.9702 45.3086 32.8332 43.75 31.5592C43.4344 31.3003 43.1236 31.0364 42.8228 30.7674C42.6452 30.61 42.4677 30.4476 42.295 30.2902C39.5774 27.7726 37.6884 25.1992 37.6884 25.1992L36.4307 19.4736L43.2272 20.367C43.2272 20.367 43.2272 20.367 43.2321 20.3721C43.2568 20.3974 43.3061 20.4583 43.385 20.5446C43.39 20.5548 43.3998 20.5599 43.4048 20.57C44.3221 21.6207 48.4356 26.326 51.3456 29.7623C57.8807 29.7623 55.7599 31.209 67.1384 32.0312C68.3369 33.2951 68.0065 34.9143 67.3308 35.4117L67.3357 35.427Z" fill="#B7F3DF"/>
<path d="M40.0513 36.5776C39.9945 37.1466 39.9635 37.7458 39.9687 38.3702C41.6211 38.3904 41.0273 39.4327 41.0273 39.4327C41.0273 39.4327 40.2888 40.0169 39.1012 40.7017C38.9256 40.8024 38.7449 40.9031 38.5487 41.0089C38.3318 41.1247 38.1046 41.2455 37.8619 41.3613C37.5572 41.5074 37.2371 41.6534 36.9014 41.7944C36.287 42.0512 35.626 42.2829 34.9392 42.4641C34.3351 42.6253 33.7051 42.7411 33.07 42.8015C32.3522 42.867 31.6241 42.8569 30.9012 42.7461C29.791 42.5749 28.6911 42.162 27.6584 41.4016C27.4105 41.2203 27.2091 40.9988 27.0491 40.747C26.8115 40.3693 26.6773 39.9262 26.6618 39.473C26.228 26.8489 27.5964 17.8503 31.3556 17.2662C31.5105 17.2511 31.6706 17.241 31.8255 17.231C32.3109 17.1403 33.8652 16.8634 35.3626 16.662C35.5331 16.6418 35.7086 16.6166 35.879 16.5965C35.9875 16.5814 36.0907 16.5713 36.194 16.5612C38.1975 16.3397 42.9946 20.5192 42.9946 20.5192C45.9689 24.7742 43.2167 27.4683 41.3526 31.7787C40.7484 33.1735 40.2372 34.7396 40.0461 36.5826L40.0513 36.5776Z" fill="#B7F3DF"/>
<path d="M36.7123 51.8205L43.1924 58.2588L51.1199 50.3824L44.6398 43.9441L36.7123 51.8205Z" fill="white"/>
<path d="M44.7654 43.6275L36.8379 51.5039L43.318 57.9422L51.2455 50.0658L44.7654 43.6275Z" fill="#959595"/>
<path d="M47.3041 45.695L47.0728 45.9248L48.8216 47.6623L49.0529 47.4325L47.3041 45.695Z" fill="#231538"/>
<path d="M42.7938 45.7686L45.2582 49.0654C45.2988 49.1199 45.3033 49.1962 45.2717 49.2616C45.2311 49.3488 45.1318 49.3706 45.0686 49.3052L43.1549 47.4143L45.0415 49.6431C45.1047 49.7194 45.1092 49.8338 45.0551 49.9155C44.9964 49.9973 44.8971 50.0136 44.8249 49.9482L42.8751 48.2045L44.4819 49.9864C44.5405 50.0518 44.536 50.1607 44.4728 50.2207C44.4142 50.2697 44.3374 50.2752 44.2742 50.2261L42.365 48.8257L43.9132 50.3569C43.9628 50.406 43.9764 50.4931 43.9402 50.5585C43.9041 50.6294 43.8319 50.6512 43.7687 50.613L41.354 49.0545L42.9834 47.5669L42.8028 45.7632L42.7938 45.7686Z" fill="#FFD6BE"/>
<path d="M47.1302 12.4207C47.0941 12.5494 47.0529 12.6781 47.0014 12.8115C46.9911 12.8306 46.986 12.8544 46.9757 12.8735L46.8006 13.293L46.3525 14.356C45.7603 15.7621 44.823 17.0301 43.6231 18.0502L43.3605 18.2694C43.139 18.4601 42.83 18.5364 42.5262 18.4839H42.5107L41.9803 18.3791C41.8721 18.36 41.7691 18.3314 41.6713 18.2933C41.4911 18.2265 41.3211 18.1312 41.1769 18.012C41.1254 17.9739 41.0842 17.931 41.043 17.8881C41.043 17.8881 39.4466 16.4342 39.1891 16.1435C38.5556 15.4189 38.638 14.3655 39.359 13.7125L39.4002 13.6743C39.3281 13.5981 39.2715 13.5027 39.2251 13.4026L38.6432 13.946L38.5917 13.3692L38.4475 11.7152C38.4063 11.4721 38.396 11.2385 38.4011 11.0193C38.4732 8.77891 40.7237 7.51573 43.3347 7.83986C45.2659 8.0782 46.2701 8.91714 46.7903 9.78468C47.2692 10.5903 47.3774 11.5341 47.1405 12.4207H47.1302Z" fill="#FFD6BE"/>
<path d="M48.1374 11.0637C47.9788 11.6179 47.6352 12.036 47.1858 12.1821C47.0483 12.2275 46.9003 12.2476 46.747 12.2476C45.679 12.2527 44.7591 11.8698 43.9766 11.4315C42.4223 10.5649 41.4019 9.51198 40.7939 10.9831C40.7727 11.0335 40.7516 11.0839 40.7251 11.1342C40.6987 11.1896 40.6723 11.24 40.6458 11.2954C40.5084 11.5474 40.3604 11.7489 40.2017 11.9051C40.0484 12.0512 39.8898 12.157 39.7259 12.2224L39.0915 12.8371L38.4941 13.4114L37.4155 14.6054L38.2667 10.9377C37.4155 6.47404 41.1851 4.8266 45.1926 6.45892C47.8731 7.55218 48.534 9.71854 48.1427 11.0637H48.1374Z" fill="#0A0A0A"/>
<path d="M41.305 12.3785C41.2339 12.7104 41.0917 13.0029 40.9167 13.2224C40.8018 13.3686 40.6651 13.4811 40.5229 13.5543C40.3752 13.6274 40.2166 13.6499 40.0635 13.6162C39.9158 13.5824 39.7845 13.498 39.6806 13.3742C39.6041 13.2842 39.5384 13.1773 39.4947 13.0536C39.3798 12.7498 39.347 12.3616 39.4345 11.9565C39.5494 11.4052 39.8556 10.972 40.2002 10.7976C40.3533 10.7189 40.5174 10.6907 40.676 10.7245C40.7143 10.7301 40.7526 10.747 40.7854 10.7639C40.8237 10.7808 40.862 10.8033 40.9003 10.8258C40.9221 10.8426 40.9385 10.8539 40.9604 10.8708C40.9768 10.882 40.9932 10.8989 41.0042 10.9101C41.0096 10.9158 41.0206 10.927 41.026 10.9383C41.0425 10.9552 41.0589 10.972 41.0753 10.9945C41.0807 11.0058 41.0917 11.017 41.1026 11.0283C41.119 11.0452 41.13 11.0677 41.1409 11.0845C41.1573 11.107 41.1737 11.1352 41.1846 11.1577C41.3487 11.4727 41.4034 11.9172 41.305 12.3785Z" fill="#FFD6BE"/>
<path d="M43.1008 45.8322L39.9706 45.0248C39.4933 44.6281 39.0376 44.222 38.609 43.8159C38.609 43.8159 38.7338 45.3411 37.4155 46.2619C37.7627 46.4555 38.1153 46.6491 38.4788 46.8475L41.3648 48.6843L43.3232 47.3952L43.1062 45.8322H43.1008Z" fill="#FFD6BE"/>
<path d="M41.354 17.7646L40.9306 18.9978L40.9104 19.0575L40.8045 19.3757C41.0616 20.6288 39.6351 20.6089 38.4052 20.1912C35.7588 19.1271 35.3959 17.8094 35.4514 17.0436C35.4766 16.6557 35.6127 16.412 35.6127 16.412L36.0209 15.9446L38.3901 13.2246L38.9597 12.6577C39.005 12.7671 39.0605 12.8616 39.131 12.9412L39.0857 12.9809C38.385 13.6622 38.3044 14.7611 38.9244 15.517C39.1764 15.8203 40.739 17.337 40.739 17.337C40.7793 17.3817 40.8247 17.4265 40.8701 17.4662C40.9054 17.501 40.9457 17.5309 40.981 17.5557C41.0163 17.5806 41.0566 17.6104 41.0969 17.6353C41.1372 17.6602 41.1776 17.685 41.2179 17.7049C41.2632 17.7298 41.3036 17.7497 41.3489 17.7646H41.354Z" fill="#FFD6BE"/>
<path d="M12.8083 68.1578C12.8041 68.0933 12.7998 68.023 12.7998 67.9644C12.7998 67.9117 12.7998 67.8648 12.8041 67.8179C12.8636 66.8508 13.4978 66.1006 14.2299 66.2237C14.8769 66.3351 15.4515 66.845 15.6643 67.5541C15.7196 67.7417 15.7537 67.9468 15.7537 68.1578H12.8083Z" fill="#231538"/>
<path d="M37.5676 46.1523C37.4685 46.2656 37.3546 46.3739 37.2308 46.4725C36.8494 46.8173 36.5522 46.7582 36.3293 46.6646C35.7795 46.438 35.8687 45.7729 35.8687 45.7729C35.8687 45.7729 35.2 46.1129 35.096 45.2705C35.096 45.2705 33.3971 44.2015 31.3663 42.7286C30.1776 41.8665 28.87 40.8665 27.7307 39.8665C26.6955 38.9551 25.7941 38.0487 25.2443 37.2408L24.6152 36.3344L24.8282 35.8714L25.0907 34.1817C25.0907 34.1817 25.0907 34.1817 25.1006 34.1768L26.5717 22.0732C26.8887 19.5609 28.974 17.6052 31.5199 17.5264C31.5843 17.5264 31.6486 17.5264 31.713 17.5264C31.9161 17.5264 32.1043 17.5559 32.2777 17.615C32.3173 17.6298 32.3569 17.6446 32.3966 17.6594C32.8968 17.8613 33.2832 18.2899 33.5853 18.8417C34.1004 19.7776 34.3629 21.0732 34.4967 22.2308C34.6799 23.8023 34.4422 25.3934 33.8181 26.8467L30.8908 33.6743L30.7818 33.9255C30.8908 33.9255 31.1979 33.9305 31.2078 34.1078C31.2227 34.3246 31.0543 34.5906 31.0543 34.5906C31.0543 34.5906 31.4109 34.7285 31.4109 34.9157C31.4109 34.9797 31.3663 35.0536 31.2524 35.1275C31.3713 35.2359 31.4901 35.3492 31.609 35.4674C32.664 36.497 33.7933 37.7975 34.8186 39.0586C35.5269 39.9305 36.1857 40.7827 36.7404 41.5217C36.79 41.5906 36.8395 41.6547 36.889 41.7187C37.315 42.2902 37.6716 42.7828 37.9341 43.1424C38.1174 43.3985 38.2561 43.5907 38.3304 43.699C38.375 43.7631 38.3997 43.7976 38.3997 43.7976C38.3997 43.7976 38.4294 45.1769 37.5676 46.1523Z" fill="#B7F3DF"/>
<path opacity="0.25" d="M41.1828 20.9124C39.9439 22.1312 37.8109 20.9339 36.3436 19.6936C35.4739 18.9581 35.3913 17.9218 35.469 17.197C35.503 16.8588 35.746 16.5957 36.0521 16.5527C36.0521 16.5527 34.9103 18.9044 38.7486 20.6332C39.9342 21.0896 41.3092 21.1057 41.0614 19.758L41.1877 19.35C41.1877 19.35 41.5618 20.5043 41.1877 20.9124H41.1828Z" fill="#94AF8F"/>
<path opacity="0.5" d="M32.7334 43.8159L28.5537 47.3961L28.8934 47.7107L33.4768 44.4913L32.7334 43.8159Z" fill="#024480"/>
<path d="M12.7998 68.1577C10.8306 67.3187 11.1548 62.4347 11.1548 62.4347C11.1548 62.4347 10.8726 62.1913 10.8306 62.0722C10.9386 60.969 11.6231 59.6121 11.6231 59.6121L12.1274 59.4981C12.3315 59.4515 12.5356 59.4204 12.7458 59.3945C12.3795 60.0316 11.6831 61.5128 11.551 63.7606C11.4069 66.1948 12.3795 67.443 12.7938 67.8573C12.7938 67.8987 12.7878 67.9402 12.7878 67.9868C12.7878 68.0437 12.7878 68.1007 12.7998 68.1577Z" fill="white"/>
<path d="M14.073 64.1179C14.2858 64.2156 14.9106 64.2503 15.3549 64.2629C15.6279 64.2723 15.8316 64.0833 15.7251 63.9099C15.5493 63.6263 15.179 63.4089 14.6468 63.308C13.9619 63.1757 13.4713 63.787 14.022 64.0927C14.0406 64.1022 14.0544 64.1116 14.073 64.1179Z" fill="#231538"/>
<path opacity="0.75" d="M45.2768 13.6444C45.193 13.886 45.1092 14.121 45.0201 14.356L44.7635 15.0676C44.6797 15.3026 44.5959 15.5441 44.5174 15.7792C44.4388 16.0207 44.3602 16.2623 44.3131 16.5038C44.3131 16.5038 44.2974 16.543 44.2817 16.543C44.1874 16.5626 44.0931 16.5495 44.0041 16.5234C43.9151 16.4973 43.8313 16.4516 43.7527 16.3993C43.6741 16.3471 43.5956 16.2884 43.5275 16.2231C43.4542 16.1578 43.3861 16.086 43.3232 16.0076C43.4646 16.1382 43.6165 16.2492 43.7789 16.3341C43.8574 16.3732 43.9412 16.4124 44.025 16.432C44.1088 16.4516 44.1926 16.4516 44.2712 16.432L44.2398 16.4712C44.2817 16.21 44.3602 15.962 44.4388 15.7204C44.5174 15.4789 44.6064 15.2438 44.6954 15.0088C44.7845 14.7738 44.884 14.5453 44.9835 14.3103C45.083 14.0818 45.1825 13.8533 45.2925 13.6313L45.2768 13.6444Z" fill="#ED7054"/>
<path opacity="0.75" d="M43.2705 17.5264C43.2705 17.5264 43.2519 17.5264 43.2394 17.5206C42.4378 17.057 42.3446 16.6339 42.3384 16.6165C42.3384 16.5875 42.3508 16.5585 42.3819 16.5527C42.4129 16.5527 42.444 16.5643 42.4502 16.5933C42.4502 16.5933 42.5497 16.9932 43.2954 17.4279C43.3202 17.4453 43.3327 17.4801 43.314 17.5032C43.3016 17.5206 43.2829 17.5264 43.2643 17.5264H43.2705Z" fill="#ED7054"/>
<path d="M43.5259 11.7591C43.6104 11.9333 43.7174 12.1006 43.8356 12.2539C43.9539 12.4072 44.0778 12.5465 44.213 12.665C44.3481 12.7904 44.4945 12.888 44.641 12.9647C44.7874 13.0483 44.9507 13.0831 45.1028 13.118H45.1197C45.2323 13.1458 45.3111 13.2783 45.2886 13.4176C45.2717 13.557 45.1591 13.6546 45.0465 13.6267C45.0408 13.6267 45.0352 13.6267 45.0296 13.6267C44.8381 13.564 44.6522 13.4943 44.4833 13.3758C44.3143 13.2643 44.1566 13.1319 44.0158 12.9716C43.875 12.8183 43.7455 12.6441 43.6329 12.4629C43.5202 12.2817 43.4189 12.0936 43.3344 11.8776C43.3062 11.8079 43.3344 11.7312 43.3851 11.6964C43.4358 11.6685 43.4977 11.6894 43.5259 11.7452V11.7591Z" fill="#474747"/>
<path d="M46.226 13.4809C45.9532 13.6901 45.6591 13.6901 45.3778 13.4251C45.3139 13.3693 45.2798 13.1462 45.2968 12.937C45.3139 12.7278 45.3821 12.6162 45.446 12.672C45.4503 12.672 45.4588 12.672 45.4631 12.6859C45.6889 13.0346 45.9489 13.1601 46.2132 13.1043C46.243 13.1043 46.2728 13.1741 46.2771 13.2717C46.2771 13.3693 46.26 13.453 46.2345 13.4669L46.226 13.4809Z" fill="#474747"/>
<path d="M67.9382 22.2589C67.6948 22.4655 66.7318 22.3922 66.1475 22.3255C65.877 22.2922 65.6877 22.2656 65.6877 22.2656L65.3198 21.5726L64.9844 20.9396L65.6823 19.4736C65.6823 19.4736 66.4992 21.4327 67.7597 21.5059C67.5974 21.6725 66.1475 21.2927 66.1475 21.2927C66.1475 21.2927 67.0131 22.3055 67.9382 22.2656V22.2589Z" fill="#3E2824"/>
<path d="M107.903 60.1958C107.841 60.2605 107.774 60.3166 107.707 60.3684L104.369 58.9709C105.235 58.091 105.394 57.1551 105.353 56.4736L108.017 58.5871C108.073 58.6518 108.125 58.7164 108.166 58.7855C108.418 59.1909 108.336 59.743 107.898 60.1915L107.903 60.1958Z" fill="#FFD6BE"/>
<path d="M104.877 59.3946C102.756 58.9681 93.8404 53.16 93.8404 53.16C93.1793 53.2284 92.7266 52.8598 92.5537 52.5755L94.5626 48.6841C94.5626 48.6841 96.841 48.7789 98.9109 49.6214C101.154 50.5324 104.063 53.9024 106.062 56.172C106.743 56.9513 106.097 58.8154 104.877 59.3946Z" fill="#363636"/>
<path d="M111.231 63.4656L110.867 60.933C110.867 60.933 110.329 57.6545 108.915 57.5848C108.915 57.5848 108.792 57.5902 108.592 57.6223C108.469 57.6384 108.311 57.6706 108.131 57.7082C108.131 57.7082 107.988 57.7511 107.727 57.4936C107.629 57.397 107.465 57.4614 107.45 57.5955C107.419 57.8584 107.46 58.2233 107.814 58.4648C108.3 58.7921 108.429 59.4896 108.09 59.9833C108.07 60.0101 108.049 60.0369 108.029 60.0638C107.604 60.6164 106.933 60.8472 106.338 60.4286C106.354 60.4555 106.374 60.4769 106.39 60.4984C107.66 62.2315 107.045 65.2095 106.805 65.5476C106.605 65.8266 106.523 66.1646 106.548 66.4973C106.569 66.7388 106.651 66.9748 106.789 67.1841H108.982C109.468 67.1841 109.935 66.9748 110.273 66.6046C110.913 65.9017 111.261 64.9734 111.261 64.0183C111.261 63.8305 111.246 63.6481 111.22 63.4603L111.231 63.4656Z" fill="#C3344A"/>
<path opacity="0.85" d="M111.256 64.2956C111.256 65.1671 110.893 66.014 110.224 66.6553C109.872 66.9931 109.385 67.1841 108.877 67.1841H106.59C106.445 66.9931 106.36 66.7777 106.338 66.5574C106.461 66.4595 106.777 66.2735 107.322 66.3126C108.065 66.3616 108.589 67.1449 109.519 66.7141C110.449 66.2784 111.94 65.3433 110.551 61.4758C110.032 60.0267 109.685 58.4699 108.466 58.4552C108.674 58.4258 108.803 58.4209 108.803 58.4209C109.631 58.4552 110.422 59.0867 110.738 59.919C110.983 60.5701 110.839 61.4758 110.839 61.4758L111.219 63.7865C111.245 63.9578 111.261 64.1243 111.261 64.2956H111.256Z" fill="#F6E1E4"/>
<path d="M106.343 61.4442C106.433 60.4343 107.14 60.293 107.733 60.3977C108.662 61.7582 108.317 63.2338 107.733 63.2862C106.9 63.3594 107.498 62.2815 106.338 61.4442H106.343Z" fill="url(#paint0_linear_69_3973)"/>
<path opacity="0.75" d="M106.343 61.4442C106.433 60.4343 107.14 60.293 107.733 60.3977C108.662 61.7582 108.317 63.2338 107.733 63.2862C106.9 63.3594 107.498 62.2815 106.338 61.4442H106.343Z" fill="#5B3245"/>
<path d="M96.4875 50.3186L96.4633 50.3427C95.8102 52.2988 92.3899 52.5789 92.3899 52.5789C92.1867 52.4775 75.9606 46.3195 75.8154 40.9391L79.5067 38.3359L84.1413 37.9736L95.965 49.7776L96.4924 50.3186H96.4875Z" fill="#363636"/>
<path d="M68.4083 18.2215C68.145 18.5719 67.7977 18.8953 67.3999 19.1701C67.3607 19.1971 67.3215 19.224 67.2823 19.251C67.243 19.2779 67.2038 19.2995 67.1702 19.3264C66.8341 19.542 66.4699 19.7253 66.1002 19.8816C64.7052 20.4637 63.1925 20.6308 62.5987 20.2211C60.6603 18.8845 61.0861 16.8526 61.0861 16.8526C61.0861 16.8526 61.1253 16.4268 61.2653 15.8393C61.2989 15.7099 61.3326 15.5752 61.3718 15.4404C61.3718 15.4351 61.3718 15.4243 61.3774 15.4189C61.3886 15.3812 61.3998 15.3488 61.411 15.3111C61.9768 13.484 63.4671 11.0586 67.243 14.1092C69.2095 15.6991 69.2319 17.1274 68.4195 18.2215H68.4083Z" fill="#3E2824"/>
<path d="M68.9202 59.192C68.7921 59.0823 68.6384 59.0275 68.6127 59.0396C68.5769 59.0579 67.8235 59.064 66.7268 59.3261C65.8197 59.5455 65.7121 60.1185 65.6506 60.3684C65.2509 60.0027 64.9844 58.9848 64.9844 58.9848L66.2656 56.4736H68.2489C68.2489 56.4736 68.9715 58.1742 68.9202 59.1981V59.192Z" fill="#F5CCB5"/>
<path d="M68.8883 48.6021L68.6368 52.8657L68.5974 53.5368L68.4347 56.2656C68.4347 56.2656 68.1142 56.7097 66.3637 56.3002L65.7079 53.0877L64.6872 48.0741C64.5097 47.2007 64.4209 46.3124 64.4209 45.4242C64.4209 44.8222 64.4604 44.2251 64.5442 43.628C64.5689 43.4405 64.5984 43.2579 64.633 43.0704C64.7957 42.1624 64.7562 41.2297 64.5294 40.3366L64.0807 38.5354L63.8835 37.741L63.5186 36.2803C63.1833 34.943 63.0156 33.5761 63.0156 32.2092C63.0156 31.3703 63.0797 30.5314 63.203 29.7024L64.8696 28.2368L67.6802 30.1219L68.1142 33.2159C68.3065 34.5729 68.341 35.9447 68.2226 37.3116L68.198 37.5978L67.9366 40.5882C67.8824 41.2051 67.9564 41.8219 68.1388 42.4091C68.7601 44.4077 69.0165 46.5049 68.8932 48.5972L68.8883 48.6021Z" fill="#FFD6BE"/>
<path d="M83.4678 37.8012C82.6388 40.109 79.8685 42.3714 77.1601 41.7705C77.0056 41.7351 76.8512 41.6897 76.6967 41.6392C75.7596 40.4777 74.5959 39.6646 73.5712 39.1142C73.3189 38.9778 73.0769 38.8566 72.8452 38.7506C72.5311 38.6092 72.2479 38.493 71.9956 38.3971C71.4034 38.1749 71.0224 38.089 71.0224 38.089L70.1367 38.2557C70.0389 38.2102 69.9411 38.1597 69.8484 38.1092C69.7609 38.0638 69.6733 38.0183 69.5858 37.9678C69.5755 37.9628 69.5652 37.9577 69.5549 37.9527C69.4622 37.9022 69.3747 37.8517 69.282 37.7961C69.1893 37.7406 69.0966 37.6901 69.0039 37.6295C68.8186 37.5184 68.6383 37.4022 68.4633 37.281C68.3757 37.2204 68.2882 37.1598 68.2007 37.0992C67.9381 36.9174 67.6858 36.7205 67.4386 36.5185C67.3562 36.4528 67.2738 36.3821 67.1966 36.3165C67.037 36.1852 66.8825 36.0438 66.7332 35.9024C66.728 35.8973 66.7177 35.8872 66.7126 35.8822C66.6405 35.8115 66.5684 35.7458 66.4963 35.6751C66.4191 35.5994 66.347 35.5287 66.2749 35.4529C66.2028 35.3772 66.1307 35.3014 66.0586 35.2257C65.9145 35.0742 65.7806 34.9176 65.6416 34.7611C64.6066 33.539 63.7827 32.1401 63.2318 30.62C63.1237 30.312 63.0464 30.0797 63.031 29.9534C62.9177 29.0596 63.4532 28.3879 63.9269 27.9789C64.2616 27.691 64.5551 27.5345 64.5551 27.5345L64.6735 27.4688L69.5703 24.8176C69.5703 24.8176 72.9275 24.3227 73.8801 24.3429C73.9574 24.358 74.0346 24.3782 74.1118 24.3984C75.2601 24.7115 76.3672 25.464 77.0674 27.0345C77.1138 27.1406 77.1601 27.2416 77.2013 27.3375C77.2219 27.388 77.2476 27.4385 77.2682 27.484C77.9067 28.903 78.4371 29.9787 78.8542 30.7766C79.2609 31.5543 79.5647 32.0694 79.7707 32.3977C79.8068 32.4532 79.8376 32.5037 79.8634 32.5441C79.9921 32.7411 80.0591 32.837 80.0745 32.8522C80.749 33.9329 81.5883 34.8873 82.6336 35.3822C82.9374 35.5236 83.2567 35.6297 83.5913 35.6903C83.7716 36.3367 83.7046 37.0588 83.442 37.781L83.4678 37.8012Z" fill="#FFD6BE"/>
<path d="M71.8745 62.0245L71.6906 63.615L71.6572 63.8899C71.6349 64.1059 71.4289 64.263 71.1894 64.263C71.1726 64.263 71.1559 64.263 71.1392 64.263C70.8774 64.2385 70.6881 64.0323 70.7159 63.8065L70.8663 62.481L70.9276 61.941C71.0167 61.1752 70.6992 60.429 70.0531 59.9037C69.407 59.3785 68.5436 59.1576 67.6803 59.295C67.023 59.403 66.4716 59.7614 66.1708 60.2916C65.87 60.8168 65.8645 61.4256 66.1597 61.9508L66.5329 62.6185L67.0787 63.6052C67.1957 63.8114 67.0954 64.0617 66.8615 64.1648C66.6276 64.2679 66.3435 64.1795 66.2265 63.9734L65.9369 63.453L65.3019 62.319C64.873 61.5532 64.8786 60.6794 65.3186 59.9136C65.7531 59.1527 66.5496 58.6274 67.502 58.4752C68.6606 58.2887 69.8191 58.5881 70.6825 59.2901C71.5458 59.9921 71.9747 60.9886 71.8577 62.0245H71.8745Z" fill="#595959"/>
<path d="M70.9814 66.9156C70.7817 67.0915 70.5066 67.1843 70.2206 67.1843H67.6256C67.3288 67.1843 67.0483 67.0769 66.8379 66.8863C66.6922 66.7544 66.5573 66.6078 66.444 66.4466C66.1473 66.0264 65.9692 65.5281 65.9692 64.9907C65.9692 64.6487 66.0394 64.3214 66.1689 64.0233C66.1904 63.9696 66.2174 63.9158 66.2444 63.8621C66.3955 63.5739 66.6005 63.31 66.8486 63.0902C67.4313 62.5674 68.246 62.2645 69.1362 62.3231C69.816 62.3671 70.4364 62.6211 70.9112 63.0169C71.2673 63.3149 71.5478 63.6862 71.7097 64.1064C71.8014 64.336 71.8554 64.5803 71.8716 64.8343C71.9255 65.6502 71.5694 66.3929 70.9814 66.9107V66.9156Z" fill="#595959"/>
<path opacity="0.5" d="M66.9539 62.5007C66.5915 62.7254 66.2922 62.995 66.0716 63.2896L65.9692 63.1598C66.1662 62.8452 66.4497 62.5606 66.8042 62.3159L66.946 62.5007H66.9539Z" fill="#202020"/>
<path d="M69.8984 37.0589C69.6746 37.1632 69.4556 37.2517 69.2366 37.3351C68.4891 37.6113 67.7654 37.7832 67.0941 37.877C66.437 37.9708 65.8276 37.9864 65.28 37.9656C64.6468 37.9447 64.104 37.8666 63.685 37.7832C63.5851 37.3403 63.4993 36.9183 63.4279 36.517C63.4279 36.5014 63.4232 36.4806 63.4184 36.4649C63.3756 36.2409 63.3375 36.0168 63.3041 35.8032C63.2613 35.5271 63.2232 35.2613 63.1899 35.006C62.8518 32.3643 63.0613 30.624 63.347 29.1963C63.4565 28.5814 63.8231 28.1021 64.1516 27.7842C64.2516 27.6852 64.3516 27.6019 64.4373 27.5341C64.6135 27.3987 64.7373 27.3257 64.7373 27.3257L64.842 27.2632H64.8468C64.8801 27.3726 64.9134 27.4768 64.942 27.5862C64.9563 27.6383 64.9706 27.6904 64.9896 27.7478C65.0039 27.7999 65.0182 27.852 65.0325 27.9041C68.5986 26.9558 69.4937 31.9579 69.8127 35.7459C69.8508 36.2044 69.8794 36.6473 69.9079 37.0589H69.8984Z" fill="#4768DF"/>
<path d="M79.367 34.3539C79.337 34.405 79.307 34.4613 79.2771 34.5124C79.1872 34.6659 79.0823 34.8143 78.9674 34.9626C78.5829 35.4588 78.0835 35.9243 77.5342 36.354C75.5266 37.9142 72.8748 38.9475 72.8748 38.9475C72.5702 38.8043 72.2955 38.6867 72.0508 38.5895C71.4765 38.3644 71.107 38.2774 71.107 38.2774L70.248 38.4462C70.1531 38.4002 70.0632 38.349 69.9683 38.2979C69.8834 38.2518 69.7985 38.2058 69.7136 38.1547C69.7037 38.1495 69.6937 38.1444 69.6837 38.1393C69.5938 38.0882 69.5089 38.037 69.419 37.9807C69.3291 37.9245 69.2392 37.8733 69.1493 37.8119C68.9695 37.6994 68.7998 37.5817 68.625 37.459C68.5401 37.3976 68.4552 37.3362 68.3703 37.2748C68.1156 37.0855 67.8709 36.8911 67.6312 36.6865C67.5513 36.62 67.4714 36.5484 67.3965 36.4819C67.2416 36.3438 67.0918 36.2057 66.947 36.0624C66.942 36.0573 66.932 36.0471 66.927 36.042C66.8571 35.9703 66.7872 35.9038 66.7173 35.8322C66.6424 35.7555 66.5725 35.6839 66.5025 35.6072C66.4326 35.5304 66.3627 35.4537 66.2928 35.377C66.2928 35.3258 66.2878 35.2746 66.2828 35.2235C66.2828 35.1928 66.2828 35.157 66.2778 35.1263C66.2778 35.0854 66.2778 35.0393 66.2728 34.9933C66.2728 34.9882 66.2728 34.9831 66.2728 34.9728C66.2728 34.937 66.2728 34.8961 66.2728 34.8552C66.2678 34.6966 66.2628 34.5278 66.2578 34.3487C66.2578 34.3027 66.2578 34.2618 66.2578 34.2157C66.2528 34.0265 66.2428 33.8219 66.2279 33.6019C66.2279 33.5405 66.2179 33.474 66.2129 33.4075C66.2129 33.3615 66.2079 33.3154 66.2029 33.2694C66.2029 33.2233 66.1979 33.1773 66.1929 33.1262C66.1929 33.0852 66.1879 33.0392 66.1829 32.9983C66.1829 32.9625 66.1779 32.9266 66.1729 32.8908C66.1729 32.8704 66.1729 32.8499 66.1679 32.8346C66.1679 32.7988 66.1629 32.7681 66.158 32.7323C66.158 32.6965 66.153 32.6606 66.148 32.6248C66.143 32.5737 66.133 32.5174 66.128 32.4611C66.128 32.4304 66.123 32.3998 66.118 32.3691C66.108 32.3026 66.103 32.2361 66.093 32.1696C66.083 32.0979 66.0731 32.0212 66.0581 31.9445C66.0481 31.8831 66.0381 31.8166 66.0281 31.7552C66.0281 31.7245 66.0181 31.6989 66.0131 31.6682C66.0081 31.6273 65.9981 31.5864 65.9932 31.5455C65.9832 31.479 65.9732 31.4176 65.9582 31.3511C65.9482 31.2846 65.9332 31.213 65.9182 31.1413C65.9083 31.0953 65.8983 31.0493 65.8883 31.0032C65.8883 30.993 65.8883 30.9879 65.8833 30.9777C65.8733 30.9265 65.8633 30.8753 65.8533 30.8242C65.8333 30.7219 65.8084 30.6196 65.7884 30.5121C65.7784 30.461 65.7634 30.4098 65.7534 30.3536C65.7485 30.3331 65.7435 30.3126 65.7385 30.2973C65.7385 30.2871 65.7335 30.2768 65.7335 30.2717C65.7335 30.2717 65.7335 30.2666 65.7335 30.2615V30.2564C65.7285 30.2359 65.7235 30.2103 65.7185 30.1899C65.7035 30.1336 65.6935 30.0773 65.6785 30.0211C65.6486 29.8983 65.6186 29.7755 65.5886 29.6476C65.5737 29.576 65.5537 29.5044 65.5337 29.4328C65.5187 29.3765 65.5037 29.3151 65.4888 29.2589C65.4638 29.1719 65.4388 29.0798 65.4188 28.9929C65.3989 28.911 65.3739 28.8343 65.3539 28.7524C65.324 28.6501 65.294 28.5427 65.264 28.4353C65.2391 28.3432 65.2091 28.246 65.1791 28.1488C65.1791 28.1488 65.1791 28.1488 65.1791 28.1437C65.1642 28.0925 65.1492 28.0414 65.1342 27.9902C65.1192 27.9391 65.1042 27.8879 65.0843 27.8316C65.0543 27.7242 65.0193 27.6219 64.9844 27.5094L69.7336 24.8237C69.7336 24.8237 72.9897 24.3224 73.9136 24.3429C73.9885 24.3582 74.0634 24.3787 74.1383 24.3992C75.2519 24.7163 76.3256 25.4785 77.0048 27.0694C77.0498 27.1769 77.0947 27.2792 77.1347 27.3764C77.1546 27.4275 77.1796 27.4787 77.1996 27.5247C77.2345 27.6014 77.2695 27.6782 77.2995 27.7549C77.9936 29.3356 78.5579 30.4508 78.9874 31.2385C79.2821 31.7808 79.5118 32.1644 79.6716 32.4304C79.6916 32.5072 79.7065 32.5788 79.7215 32.6504C79.8214 33.2285 79.6816 33.7963 79.3919 34.3334L79.367 34.3539Z" fill="#6988F3"/>
<path d="M65.9654 20.1352C65.9654 20.1839 65.9654 20.2277 65.9603 20.2763C65.9603 20.2763 65.909 20.3833 65.8371 20.5244C65.6883 20.8162 65.4625 21.254 65.4471 21.2346C65.4471 21.3075 65.5651 22.2366 65.5805 22.6793C65.5805 22.7717 65.56 22.8641 65.5138 22.9468C65.4009 23.1365 65.1905 23.443 64.9339 23.7884C64.6106 24.231 64.2155 24.7418 63.8819 25.1552C63.8203 25.2282 63.7639 25.3012 63.7074 25.3693C63.4406 25.6952 63.2404 25.9287 63.1789 25.9676C63.1481 25.987 63.1173 26.0065 63.0916 26.0162C63.0044 26.06 62.9633 26.0649 62.9633 26.0649C62.6913 26.167 62.3988 26.2351 62.0858 26.2789C61.7933 26.3178 61.4956 26.2497 61.2544 26.0941C60.4231 25.5687 59.5661 24.878 58.8835 24.051C58.6064 23.7154 58.3601 23.3603 58.1497 22.9809C57.9906 22.6939 57.8572 22.3923 57.7494 22.081C57.6108 21.687 57.4928 21.3027 57.3953 20.9379C57.3953 20.9379 57.3953 20.9379 57.3953 20.933C57.1028 19.8434 57.0053 18.8948 57.2362 18.1019C57.3183 17.8295 57.4364 17.5717 57.6006 17.3382C58.0932 16.6281 58.9964 16.0881 60.4641 15.7282C62.8709 15.1396 65.1649 16.3313 65.7961 18.6468C65.8679 18.8997 65.9141 19.1672 65.9449 19.4494C65.9654 19.6683 65.9757 19.8969 65.9654 20.1352Z" fill="#FFD6BE"/>
<path d="M65.9694 19.8079C65.9078 19.8397 65.8462 19.8716 65.7794 19.9034C65.6612 19.9565 65.5379 20.0042 65.3992 20.052C65.2965 20.0838 65.1937 20.1157 65.0756 20.1422C64.9626 20.1741 64.8444 20.1953 64.716 20.2165C64.4951 20.2537 64.2793 20.2802 64.0739 20.2961C63.442 20.3439 62.8923 20.2749 62.3992 20.0732C62.3529 20.052 62.3067 20.0361 62.2604 20.0095C62.2039 19.983 62.1474 19.9512 62.0909 19.9193C61.6183 19.6593 61.2073 19.2612 60.8221 18.704C60.8169 18.6934 60.8066 18.6828 60.8015 18.6722C60.6166 18.4015 60.4008 18.2317 60.1645 18.1255C60.1388 18.1149 60.1131 18.1043 60.0823 18.0937C60.0772 18.0937 60.072 18.0937 60.0669 18.0884C60.0412 18.0831 60.0207 18.0725 59.995 18.0672C59.9642 18.0566 59.9282 18.0459 59.8974 18.0406C59.8717 18.0353 59.8511 18.03 59.8255 18.0247C59.7998 18.0194 59.7741 18.0141 59.7484 18.0088H59.7279C59.7279 18.0088 59.6816 17.9982 59.6559 17.9982C59.5994 17.9929 59.5429 17.9929 59.4813 17.9929H59.4607C59.3066 17.9929 59.1525 18.0141 59.0035 18.0406C58.0942 18.2264 57.4161 18.9906 57.3237 19.9405C57.298 20.2218 57.2929 20.5455 57.3288 20.9223C57.3442 21.0816 57.3648 21.2461 57.3956 21.4212C57.1028 20.2324 57.0052 19.2029 57.2363 18.3325C57.3031 18.0831 57.4007 17.8496 57.524 17.6267C57.6884 17.3401 57.9042 17.0748 58.1816 16.8359C58.7056 16.3795 59.4504 16.0133 60.4676 15.7427C60.4984 15.7374 60.5241 15.7268 60.5498 15.7215C60.6679 15.6896 60.781 15.6684 60.8991 15.6472C63.1492 15.2597 65.2092 16.5494 65.8051 18.9269C65.8718 19.1869 65.9181 19.4629 65.9489 19.7548C65.9489 19.7707 65.9489 19.7866 65.954 19.8079H65.9694Z" fill="#3E2824"/>
<path d="M73.4824 24.3563C73.5539 24.3708 73.6254 24.3902 73.6921 24.4095C74.4118 25.7987 75.5557 28.0446 75.4699 28.1511C75.3412 28.3108 75.713 30.9778 75.713 30.9778C75.713 30.9778 76.4088 36.2731 74.1687 37.1734C73.8923 37.2847 73.6016 37.3863 73.2918 37.4735C72.7913 37.6187 72.2623 37.7397 71.7285 37.822C71.3233 37.8849 70.9135 37.9236 70.5226 37.9478C69.9364 37.9769 69.3406 37.9962 68.7973 37.9236C68.1729 37.8462 67.6153 37.6477 67.2102 37.2121C67.1577 37.154 67.1053 37.0959 67.0576 37.0282C67.0434 37.0088 67.0243 36.9846 67.01 36.9604C66.8479 36.7184 66.7193 36.4957 66.6192 36.2876C66.3618 35.7552 66.2712 35.3002 66.2331 34.7871C66.2331 34.7387 66.2283 34.6903 66.2236 34.6419C66.2236 34.6129 66.2236 34.579 66.2188 34.5499C66.2188 34.5112 66.2188 34.4676 66.214 34.4241C66.214 34.4192 66.214 34.4144 66.214 34.4047C66.214 34.3708 66.214 34.3321 66.214 34.2934C66.2093 34.1434 66.2045 33.9836 66.1997 33.8142C66.1997 33.7706 66.1997 33.7319 66.1997 33.6884C66.195 33.5093 66.1854 33.3157 66.1711 33.1075C66.1711 33.0494 66.1616 32.9865 66.1568 32.9236C66.1568 32.88 66.1521 32.8365 66.1473 32.7929C66.1473 32.7493 66.1426 32.7058 66.1378 32.6574C66.1378 32.6187 66.133 32.5751 66.1283 32.5364C66.1283 32.5025 66.1235 32.4686 66.1187 32.4347C66.1187 32.4154 66.1187 32.396 66.114 32.3815C66.114 32.3476 66.1092 32.3186 66.1044 32.2847C66.1044 32.2508 66.0997 32.2169 66.0949 32.183C66.0901 32.1346 66.0806 32.0814 66.0758 32.0281C66.0758 31.9991 66.0711 31.9701 66.0663 31.941C66.0568 31.8781 66.052 31.8152 66.0425 31.7522C66.0329 31.6845 66.0234 31.6119 66.0091 31.5393C65.9996 31.4812 65.99 31.4183 65.9805 31.3602C65.9805 31.3311 65.971 31.3069 65.9662 31.2779C65.9614 31.2392 65.9519 31.2005 65.9471 31.1617C65.9376 31.0988 65.9281 31.0407 65.9138 30.9778C65.8995 30.9149 65.8899 30.8471 65.8756 30.7793C65.8661 30.7358 65.8566 30.6922 65.847 30.6487C65.847 30.639 65.847 30.6341 65.8423 30.6245C65.8327 30.5761 65.8232 30.5276 65.8137 30.4792C65.7946 30.3824 65.7708 30.2856 65.7517 30.184C65.7422 30.1356 65.7279 30.0872 65.7184 30.0339C65.7136 30.0146 65.7088 29.9952 65.7041 29.9807C65.7041 29.971 65.6993 29.9613 65.6993 29.9565C65.6993 29.9565 65.6993 29.9517 65.6993 29.9468V29.942C65.6945 29.9226 65.6898 29.8984 65.685 29.879C65.6707 29.8258 65.6612 29.7774 65.6469 29.7193C65.6183 29.6032 65.5897 29.487 65.5611 29.366C65.5468 29.2982 65.5277 29.2304 65.5087 29.1627C65.4944 29.1094 65.4801 29.0514 65.4658 28.9981C65.4419 28.9158 65.4181 28.8287 65.399 28.7464C65.38 28.669 65.3561 28.5964 65.3371 28.5189C65.3085 28.4221 65.2799 28.3205 65.2513 28.2188C65.2227 28.1317 65.1989 28.0397 65.1703 27.9478C65.1703 27.9478 65.1703 27.9478 65.1703 27.9429C65.156 27.8945 65.1417 27.8461 65.1274 27.7977C65.1131 27.7493 65.0988 27.7009 65.0797 27.6477C65.0511 27.546 65.0177 27.4492 64.9844 27.3427L65.3371 27.1443L66.052 26.7425L66.1521 26.6893L69.5217 24.8016C69.5217 24.8016 72.6293 24.3272 73.511 24.3466C73.4681 24.3369 73.5158 24.3466 73.5158 24.3466L73.4824 24.3563Z" fill="#6988F3"/>
<path d="M69.9077 24.9367C69.9077 24.9367 69.1114 29.8241 67.3443 30.1574C67.3134 30.1622 67.2878 30.167 67.2569 30.1718C65.9316 30.3795 65.1559 27.8779 65.3922 27.2742C65.3922 27.2742 65.1096 26.5208 64.2106 25.6611C64.1438 25.5984 64.0719 25.5308 64 25.468C64.3339 25.0575 64.7243 24.5504 65.0531 24.1109C65.31 23.768 65.5206 23.4638 65.6336 23.2754C65.6798 23.1933 65.7055 23.1015 65.7004 23.0098C65.6901 22.6669 65.6131 22.0294 65.5822 21.73C65.7004 21.73 65.8134 21.6962 65.9264 21.6237C66.0086 21.5706 66.0857 21.5078 66.1525 21.4209C66.2501 21.5706 66.3734 21.7396 66.5172 21.9328C67.2107 22.8408 68.4282 24.1399 69.9077 24.9367Z" fill="#FFD6BE"/>
<path d="M62.0505 20.3383C62.9607 21.9161 62.4237 23.0982 62.2462 23.3684C62.806 21.3323 61.2221 19.5567 60.4529 18.8377C60.2299 18.6303 60.0752 18.5096 60.0615 18.5H60.0797C60.1298 18.5 60.1799 18.5 60.2345 18.5048C60.2527 18.5048 60.2754 18.5048 60.2982 18.5096H60.3164C60.3392 18.5145 60.3619 18.5193 60.3847 18.5241C60.4074 18.5241 60.4256 18.5338 60.4484 18.5386C60.4757 18.5434 60.5076 18.5531 60.5349 18.5627C60.5576 18.5675 60.5758 18.5772 60.5986 18.582C60.6031 18.582 60.6077 18.582 60.6122 18.5869C60.635 18.5965 60.6578 18.6061 60.6851 18.6158C60.8899 18.7123 61.0856 18.8715 61.2494 19.1128C61.254 19.1224 61.2631 19.1321 61.2676 19.1417C61.6044 19.6483 61.9731 20.0102 62.3918 20.2466C62.4419 20.2756 62.492 20.2997 62.542 20.3287C62.6148 20.43 62.674 20.5361 62.7286 20.6375C63.0199 21.2213 63.0427 21.8437 62.9972 22.0608C62.897 21.0669 62.4692 20.5168 62.0596 20.3287L62.0505 20.3383Z" fill="#3E2824"/>
<path d="M68.6752 59.3902C68.4437 59.4164 68.2241 59.3116 68.1589 59.1457L67.9452 58.5956C67.9155 58.5126 67.9867 58.4296 68.1054 58.4209C68.1232 58.4209 68.147 58.4209 68.1648 58.4209C68.3488 58.4209 68.5149 58.4995 68.598 58.6217L68.8947 59.0846C68.9778 59.2156 68.871 59.3728 68.6692 59.3946L68.6752 59.3902Z" fill="#FFD6BE"/>
<path d="M67.9315 59.9842C67.9206 60.1529 67.8446 60.3047 67.7306 60.3468C67.6112 60.3974 67.4863 60.3553 67.3886 60.2541C67.318 60.1782 67.2637 60.077 67.2311 59.9505V59.9252L66.9651 58.8036C66.9271 58.6518 66.9868 58.4747 67.09 58.441C67.1063 58.441 67.128 58.4325 67.1443 58.4241C67.3126 58.3988 67.4754 58.5253 67.5623 58.753L67.7686 59.3433L67.8989 59.7143C67.9315 59.7987 67.9423 59.8914 67.9369 59.9758L67.9315 59.9842Z" fill="#FFD6BE"/>
<path d="M113.933 60.7487C113.589 61.3142 113.046 61.5503 112.565 61.1221C111.669 59.497 112.855 58.7393 113.751 58.4209C113.879 58.6405 113.954 58.7668 113.954 58.7668C114 58.8491 114.041 58.9315 114.074 59.0193C114.278 59.5354 114.286 60.1777 113.933 60.7487Z" fill="url(#paint1_linear_69_3973)"/>
<path d="M111.166 57.3143C111.147 57.3981 111.122 57.4869 111.087 57.5707C111.087 57.5707 111.087 57.5805 111.087 57.5855C111.013 57.7925 110.914 58.0094 110.776 58.2362C110.731 58.3151 110.677 58.394 110.622 58.4729C110.479 58.6799 110.301 58.8919 110.083 59.1138C109.994 59.2074 109.895 59.3011 109.791 59.3948C109.227 59.03 108.683 58.6898 108.159 58.3644C101.238 54.0605 98.2699 53.1583 98.2699 53.1583L98.0968 53.1139C97.7901 53.035 97.5081 52.9019 97.2608 52.7195C97.0134 52.5371 96.7958 52.3103 96.6226 52.049C91.0475 49.229 86.6943 46.5323 83.5729 44.3927C81.98 43.3031 80.7086 42.3565 79.7539 41.617C79.8034 41.5973 79.8479 41.5727 79.8974 41.548C79.932 41.5332 79.9666 41.5135 80.0062 41.4938C80.0458 41.4741 80.0804 41.4543 80.12 41.4346C80.1694 41.41 80.214 41.3804 80.2634 41.3557C80.3178 41.3262 80.3723 41.2917 80.4217 41.2571C80.4761 41.2226 80.5306 41.1881 80.585 41.1536C80.6394 41.1191 80.6889 41.0846 80.7433 41.0452C80.7927 41.0106 80.8422 40.9761 80.8917 40.9367C80.8966 40.9367 80.9016 40.9268 80.9065 40.9219C80.956 40.8874 81.0005 40.848 81.05 40.8085C81.6881 40.2958 82.2323 39.6598 82.6231 38.9844C82.6874 38.8759 82.7418 38.7724 82.7962 38.6639C82.8951 38.4667 82.9792 38.2695 83.0485 38.0723C83.1079 37.9047 83.1573 37.7322 83.1969 37.5645C83.2117 37.5005 83.2216 37.4314 83.2365 37.3673C83.2464 37.323 83.2513 37.2737 83.2563 37.2293C83.3107 36.8102 83.2958 36.406 83.192 36.0264C84.3347 36.1743 86.63 35.7256 88.8412 37.0124C92.6899 39.2555 91.0525 41.9523 99.284 48.4895C99.3731 48.5585 99.4522 48.6473 99.5165 48.741C99.5165 48.741 101.733 48.8297 103.746 49.6185C103.88 49.6727 104.023 49.7368 104.167 49.8058C104.196 49.8206 104.231 49.8404 104.261 49.8551C104.34 49.8946 104.419 49.939 104.498 49.9833C104.612 50.0474 104.726 50.1164 104.839 50.1904C104.879 50.215 104.918 50.2397 104.958 50.2643C105.037 50.3136 105.116 50.3679 105.195 50.4221C105.314 50.501 105.438 50.5897 105.557 50.6785C105.636 50.7376 105.72 50.7968 105.804 50.8609C105.844 50.8905 105.888 50.925 105.928 50.9545C106.007 51.0137 106.081 51.0778 106.16 51.137C106.16 51.137 106.17 51.1468 106.175 51.1468C106.422 51.344 106.675 51.556 106.927 51.7729C107.308 52.1032 107.694 52.4533 108.07 52.8082C108.109 52.8477 108.154 52.8871 108.193 52.9266C108.361 53.0893 108.535 53.2519 108.703 53.4146C108.822 53.533 108.94 53.6464 109.059 53.7647C109.138 53.8436 109.222 53.9224 109.301 54.0062C109.381 54.0851 109.46 54.164 109.534 54.2429C109.573 54.2823 109.613 54.3218 109.653 54.3612C109.732 54.4401 109.806 54.519 109.88 54.5979C110.058 54.7803 110.226 54.9577 110.395 55.1352L110.429 55.1697C110.711 55.4705 110.978 55.7564 111.221 56.0226C111.275 56.4023 111.29 56.8312 111.171 57.2995L111.166 57.3143Z" fill="#272727"/>
<path d="M114.21 59.1954C114.187 59.4365 114.091 59.6822 113.906 59.9187C113.736 60.132 113.52 60.2896 113.289 60.3684L110.595 58.6019L110.277 58.3932C110.779 57.8739 111.064 57.3917 111.216 56.9466C111.401 56.4088 111.392 55.9219 111.332 55.5L113.925 58.2402C113.976 58.3098 114.022 58.3793 114.058 58.4535C114.174 58.6807 114.233 58.9357 114.21 59.1907V59.1954Z" fill="#FFD6BE"/>
<path opacity="0.85" d="M83.6747 36.6072C83.6598 36.7457 83.635 36.8894 83.6052 37.0331C83.5654 37.2141 83.5158 37.4005 83.4562 37.5815C83.3867 37.7944 83.3022 38.0074 83.2029 38.2203C83.1483 38.3374 83.0887 38.4545 83.0291 38.5663C82.6367 39.2957 82.0905 39.9771 81.4498 40.5361C81.0475 40.8821 80.6105 41.1802 80.1486 41.4038C79.6719 41.6328 79.1703 41.7871 78.6587 41.8457C78.4005 41.8723 78.1472 41.8776 77.889 41.851C77.8542 41.7499 77.8244 41.654 77.7847 41.5529L77.8095 41.1696C78.2267 41.1536 78.8425 41.0844 79.498 40.8555C80.531 40.4988 81.6534 39.7429 82.2196 38.1671C82.5225 37.3259 82.6616 36.6232 82.7013 36.0376C82.7261 35.6596 82.7112 35.3349 82.6715 35.0527C82.9645 35.2018 83.2724 35.3136 83.5952 35.3775C83.6946 35.7661 83.7144 36.1813 83.6697 36.6072H83.6747Z" fill="white"/>
<path d="M117.133 63.8323L116.77 61.5527C116.77 61.5527 116.232 58.6019 114.818 58.5391C114.818 58.5391 114.695 58.5439 114.495 58.5729C114.372 58.5922 114.213 58.6163 114.034 58.655C114.034 58.655 113.891 58.6888 113.629 58.4618C113.558 58.399 113.455 58.4135 113.399 58.4715C113.378 58.4908 113.363 58.5198 113.358 58.5584C113.327 58.795 113.368 59.1235 113.721 59.336C113.947 59.4712 114.095 59.6789 114.157 59.9058C114.229 60.1715 114.183 60.4613 113.998 60.6979C113.978 60.722 113.957 60.7462 113.937 60.7752C113.511 61.2726 112.84 61.4803 112.246 61.1036C112.261 61.1229 112.282 61.1471 112.297 61.1664C113.568 62.7263 112.953 65.4068 112.712 65.711C112.512 65.9622 112.431 66.2664 112.456 66.5659C112.477 66.7832 112.559 67.0005 112.697 67.1841H114.889C115.376 67.1841 115.842 66.9957 116.18 66.6625C116.821 66.0298 117.169 65.1943 117.169 64.3346C117.169 64.1656 117.154 63.9965 117.128 63.8323H117.133Z" fill="#C3344A"/>
<path opacity="0.85" d="M117.164 64.2956C117.164 65.1671 116.8 66.014 116.132 66.6553C115.779 66.9931 115.293 67.1841 114.785 67.1841H112.497C112.353 66.9931 112.267 66.7777 112.246 66.5574C112.369 66.4595 112.684 66.2735 113.23 66.3126C113.973 66.3616 114.496 67.1449 115.427 66.7141C116.357 66.2784 117.848 65.3433 116.458 61.4758C115.94 60.0267 115.592 58.4699 114.374 58.4552C114.582 58.4258 114.71 58.4209 114.71 58.4209C115.539 58.4552 116.33 59.0867 116.645 59.919C116.891 60.5701 116.747 61.4758 116.747 61.4758L117.126 63.7865C117.153 63.9578 117.169 64.1243 117.169 64.2956H117.164Z" fill="white"/>
<path d="M112.251 61.4442C112.341 60.4343 113.048 60.293 113.641 60.3977C114.569 61.7582 114.225 63.2338 113.641 63.2862C112.808 63.3594 113.405 62.2815 112.246 61.4442H112.251Z" fill="url(#paint2_linear_69_3973)"/>
<path opacity="0.75" d="M112.251 61.4442C112.341 60.4343 113.048 60.293 113.641 60.3977C114.569 61.7582 114.225 63.2338 113.641 63.2862C112.808 63.3594 113.405 62.2815 112.246 61.4442H112.251Z" fill="#5B3245"/>
<path d="M83.6924 38.9437C83.8319 38.9378 83.9676 38.9289 84.1072 38.9111C84.2428 38.8993 84.3785 38.8786 84.5142 38.8579C84.7855 38.8135 85.0491 38.7573 85.305 38.6805C85.5647 38.6095 85.805 38.506 86.0338 38.3906L86.2004 38.2989C86.2547 38.2664 86.3051 38.2309 86.3555 38.1954L86.433 38.1452C86.4563 38.1274 86.4795 38.1067 86.5028 38.089C86.5493 38.0505 86.5958 38.0121 86.6462 37.9736C86.4834 38.1452 86.2935 38.3019 86.0648 38.4291C86.0105 38.4646 85.9485 38.4882 85.8903 38.5178C85.8322 38.5474 85.774 38.5769 85.7081 38.5976C85.6461 38.6213 85.5841 38.6479 85.5221 38.6716L85.3282 38.7337C85.0646 38.8076 84.7972 38.8668 84.5219 38.9023C84.2467 38.9378 83.9676 38.9555 83.6924 38.9437Z" fill="#3E2C31"/>
<path d="M66.9538 19.033C66.891 19.0819 66.8282 19.126 66.7654 19.175C66.6173 19.2828 66.4602 19.3857 66.2986 19.4738C66.1909 19.126 65.9935 18.8909 65.7556 18.8664H65.7421C65.446 17.8279 64.8491 17.0343 64.0862 16.5493C63.4848 16.1672 62.7802 15.9762 62.0308 16.0105C62.0577 15.8929 62.0846 15.7704 62.116 15.648C62.116 15.6431 62.116 15.6333 62.1205 15.6284C62.3494 15.5892 63.3816 15.4569 64.4586 15.8978C65.4415 16.2995 66.4602 17.1764 66.9494 19.0379L66.9538 19.033Z" fill="white"/>
<path d="M69.4154 66.2106C70.2311 66.2106 70.8923 65.5567 70.8923 64.7501C70.8923 63.9435 70.2311 63.2896 69.4154 63.2896C68.5997 63.2896 67.9385 63.9435 67.9385 64.7501C67.9385 65.5567 68.5997 66.2106 69.4154 66.2106Z" fill="#323232"/>
<path opacity="0.75" d="M59.0771 22.3945L59.1696 22.6155C59.198 22.6906 59.2264 22.7657 59.2549 22.8407C59.3082 22.9908 59.358 23.1451 59.3971 23.2994C59.4362 23.4537 59.4753 23.6122 59.4966 23.7748C59.5179 23.9374 59.5392 24.1 59.5286 24.2668L59.5215 24.2502C59.6103 24.2919 59.7063 24.3169 59.8023 24.3169C59.852 24.3169 59.8983 24.3085 59.9445 24.2877C59.9907 24.2668 60.0298 24.2335 60.0618 24.1918C60.0298 24.2377 59.9907 24.2752 59.948 24.3002C59.9018 24.3252 59.852 24.3377 59.8023 24.3419C59.7525 24.3419 59.7028 24.3419 59.653 24.3294C59.6032 24.321 59.557 24.3044 59.5073 24.2835C59.5037 24.2835 59.5001 24.2752 59.5001 24.271C59.5037 24.1084 59.4859 23.9458 59.4646 23.7873C59.4397 23.6288 59.4077 23.4704 59.3686 23.3161C59.3295 23.1618 59.2833 23.0075 59.2371 22.8532L59.1625 22.628L59.0807 22.4029L59.0771 22.3945Z" fill="#ED7054"/>
<path opacity="0.75" d="M60.099 25.316C60.099 25.316 60.0772 25.316 60.0699 25.2999C60.0554 25.2838 60.0626 25.2596 60.0699 25.2435C60.0772 25.2435 60.876 24.5515 61.9944 24.3423C62.0162 24.3423 62.0308 24.3503 62.0308 24.3745C62.0308 24.3986 62.0235 24.4147 62.0017 24.4147C60.9051 24.6239 60.1135 25.2918 60.1062 25.2999C60.1062 25.2999 60.0917 25.2999 60.0844 25.2999L60.099 25.316Z" fill="#ED7054"/>
<path d="M83.6924 43.8156C81.3061 43.5614 78.7546 41.9789 77.7847 41.3252C78.3523 41.2733 78.9089 41.1228 79.4379 40.8945C80.5015 41.6728 81.9178 42.669 83.6924 43.8156Z" fill="#3E2C31"/>
<path d="M79.7251 44.7791C79.7012 44.7791 79.6773 44.7791 79.6534 44.7791C79.1515 44.7178 78.6305 44.0899 78.8026 42.5278C78.8839 41.8079 79.0512 41.1443 79.2758 40.6593C79.51 40.1488 79.7873 39.8884 80.0501 39.9241C80.3417 39.9599 80.3369 40.3019 80.3274 40.7716C80.3178 41.2719 80.3083 41.9509 80.5855 42.7269C80.901 43.5947 80.6572 44.1205 80.4851 44.3554C80.2652 44.6617 79.9593 44.7893 79.7251 44.7893V44.7791ZM80.0024 40.0518C79.8064 40.0518 79.5817 40.2917 79.3857 40.7154C79.1659 41.1902 79.0034 41.8386 78.9269 42.538C78.7739 43.9061 79.1898 44.58 79.6678 44.6362C79.8637 44.6617 80.1696 44.5545 80.3847 44.2584C80.6524 43.8908 80.6811 43.3599 80.466 42.7626C80.1792 41.9662 80.1888 41.2668 80.1983 40.7563C80.2079 40.2917 80.1983 40.0722 80.0358 40.0467C80.0262 40.0467 80.0167 40.0467 80.0071 40.0467L80.0024 40.0518Z" fill="white"/>
<path d="M81.1701 43.8156C80.9832 43.8156 80.7842 43.7151 80.5852 43.5247C80.309 43.2549 80.0734 42.8317 79.9231 42.3344C79.7687 41.8319 79.72 41.3135 79.7769 40.8744C79.8378 40.4195 80.0084 40.1021 80.2562 39.9698C80.3699 39.9116 80.4552 39.9063 80.5242 39.9487C80.638 40.0227 80.6867 40.2079 80.7477 40.4671C80.8126 40.7422 80.8939 41.0807 81.0888 41.4404C81.5966 42.3715 81.7915 42.9851 81.7022 43.3713C81.6616 43.5458 81.5641 43.6781 81.4057 43.7574C81.3285 43.7945 81.2473 43.8156 81.166 43.8156H81.1701ZM80.4268 40.0598C80.3902 40.0598 80.3496 40.0703 80.2968 40.1021C80.0856 40.2132 79.9393 40.4935 79.8865 40.8956C79.8297 41.3135 79.8784 41.8054 80.0246 42.2815C80.1709 42.7576 80.3943 43.1597 80.6542 43.4136C80.9061 43.6569 81.162 43.7363 81.3732 43.6252C81.4991 43.5617 81.5763 43.4612 81.6047 43.329C81.6819 42.9904 81.4869 42.4032 81.0076 41.5198C80.8005 41.1442 80.7152 40.7739 80.6502 40.5094C80.5974 40.2925 80.5567 40.1232 80.4836 40.0756C80.4674 40.065 80.4511 40.0598 80.4308 40.0598H80.4268Z" fill="white"/>
<path opacity="0.15" d="M66.9536 37.877C66.3791 37.9708 65.8462 37.9864 65.3674 37.9656C65.4049 37.58 65.4507 36.9547 65.5089 35.9387C65.6463 33.5106 65.0593 27.6852 65.0593 27.6852C65.0468 27.5602 65.0177 27.4091 64.9844 27.2632H64.9885C65.0177 27.3726 65.0468 27.4768 65.0718 27.5862C65.0843 27.6383 65.0968 27.6904 65.1134 27.7478C65.1259 27.7999 65.1384 27.852 65.1509 27.9041C65.2508 28.3053 65.3383 28.6857 65.4132 29.04C65.4257 29.0973 65.4382 29.1598 65.4507 29.2171C65.5131 29.5089 65.5672 29.7903 65.6172 30.056C65.6338 30.1446 65.6505 30.2332 65.6672 30.3165C65.6963 30.4885 65.7254 30.6552 65.7504 30.8115C65.7587 30.8584 65.7671 30.9053 65.7754 30.9522C65.8212 31.2388 65.8587 31.515 65.892 31.7703C65.9003 31.8484 65.9086 31.9214 65.9211 31.9995C65.9336 32.1037 65.9419 32.1975 65.9544 32.2965C65.9586 32.3539 65.9669 32.406 65.9711 32.4633C65.9711 32.4997 65.9794 32.5362 65.9794 32.5727C65.9794 32.6092 65.9836 32.6404 65.9877 32.6769C66.0044 32.8853 66.0169 33.0781 66.0294 33.2605C66.0294 33.3282 66.0377 33.3907 66.0418 33.4585C66.0543 33.6825 66.0585 33.8857 66.0668 34.0837C66.0668 34.1306 66.0668 34.1723 66.0668 34.2192C66.071 34.4016 66.0752 34.5735 66.0793 34.7351C66.0793 34.7767 66.0793 34.8132 66.0793 34.8549C66.0793 34.8601 66.0793 34.8705 66.0793 34.8757C66.0793 34.9226 66.0793 34.9643 66.0835 35.0112C66.0835 35.0477 66.0835 35.0789 66.0876 35.1102C66.0876 35.1623 66.0918 35.2144 66.096 35.2665C66.1293 35.8188 66.2084 36.3086 66.4332 36.8818C66.5206 37.1058 66.633 37.3455 66.7746 37.606C66.7871 37.6321 66.7996 37.6529 66.8162 37.679C66.8578 37.7519 66.9036 37.8197 66.9494 37.877H66.9536Z" fill="#064C44"/>
<path opacity="0.75" d="M65.9682 22.5698C65.9602 22.8271 65.944 23.0666 65.9118 23.2529C65.8674 23.5324 65.6456 23.8607 65.3753 24.18C64.9639 24.6547 64.4316 25.1027 64.1654 25.3156C64.1129 25.258 64.0565 25.1959 64 25.1382C64.2622 24.7611 64.5687 24.2954 64.8268 23.8917C65.0285 23.5768 65.1938 23.2973 65.2826 23.1243C65.3189 23.0489 65.339 22.9646 65.335 22.8803C65.3269 22.5654 65.2664 21.9798 65.2422 21.7048C65.335 21.7048 65.4237 21.6737 65.5125 21.6072C65.577 21.5584 65.6375 21.5007 65.6899 21.4209C65.8835 21.7669 65.9803 22.1661 65.9682 22.5698Z" fill="#EAC2AC"/>
<path opacity="0.25" d="M79.7539 34.342C79.6141 34.5396 79.4426 34.7372 79.2457 34.9298C78.8519 35.315 78.3627 35.6805 77.8228 36.0262C77.8545 35.2607 77.8418 34.4952 77.7847 33.7296C77.9943 33.6753 78.2039 33.616 78.4135 33.5518C78.4135 33.4678 78.4008 33.3789 78.3945 33.295C78.3119 32.0652 78.1722 30.5884 77.8101 29.2104C78.3691 30.1192 78.8455 30.8206 79.233 31.3589L79.7475 34.347L79.7539 34.342Z" fill="#6988F3"/>
<path d="M76.7472 57.4475C76.7472 57.4475 76.6996 57.4279 76.6996 57.4033L73.8462 24.3915C73.8462 24.3669 73.862 24.3423 73.8938 24.3423C73.9202 24.3423 73.9466 24.357 73.9466 24.3866L76.8 57.3983C76.8 57.4229 76.7842 57.4475 76.7525 57.4475H76.7472Z" fill="black"/>
<path d="M79.7273 62.0198L79.5724 63.5925L79.5442 63.8867C79.5208 64.099 79.3471 64.263 79.1405 64.263C79.1264 64.263 79.1123 64.263 79.0983 64.263C78.8776 64.2389 78.7133 64.0363 78.7368 63.8047L78.8682 62.454L78.9199 61.9378C78.995 61.1708 78.7227 60.4279 78.1734 59.9069C77.6195 59.3811 76.8824 59.164 76.1407 59.2991C75.5773 59.4052 75.1079 59.767 74.8497 60.2928C74.5915 60.8186 74.5915 61.4216 74.8403 61.9523L75.1548 62.6035L75.6337 63.6021C75.7323 63.8095 75.6478 64.0604 75.4506 64.1617C75.2487 64.263 75.0046 64.1762 74.906 63.9687L74.6525 63.4381L74.1173 62.3141C73.7512 61.5471 73.7559 60.6739 74.1314 59.9117C74.507 59.1495 75.1877 58.6285 76.0046 58.4742C76.9951 58.2908 77.9903 58.5851 78.7321 59.2894C79.4738 59.9937 79.84 60.9875 79.7367 62.0198H79.7273Z" fill="#595959"/>
<path d="M78.8569 66.915C78.6552 67.093 78.3792 67.1843 78.0979 67.1843H75.5023C75.205 67.1843 74.9237 67.0785 74.7114 66.8861C74.1753 66.4004 73.8462 65.7319 73.8462 64.9912C73.8462 64.5872 73.9417 64.2072 74.1222 63.8657C74.2708 63.5772 74.4778 63.3126 74.722 63.0914C75.3006 62.572 76.118 62.269 77.0097 62.3219C77.6892 62.3652 78.3102 62.6201 78.7879 63.0193C79.1436 63.3126 79.4249 63.6878 79.5841 64.111C79.6744 64.3419 79.7327 64.5872 79.7487 64.8421C79.8017 65.6597 79.4461 66.4004 78.8569 66.9198V66.915Z" fill="#595959"/>
<path opacity="0.5" d="M79.7537 63.9342L79.7219 64.2633C79.525 63.6599 79.1947 63.1319 78.769 62.7068L78.8072 62.3159C79.2391 62.7548 79.5694 63.3102 79.7537 63.9342Z" fill="#3D3D3D"/>
<path d="M78.591 60.277C78.4798 60.6686 78.1415 60.9346 77.7616 60.9346H77.7523C77.5994 61.0401 77.4233 61.1104 77.2426 61.1304L77.1499 61.1405C77.0156 61.1555 76.8858 61.1405 76.7561 61.1053L76.5986 61.0551L76.4966 61.1606C76.3947 61.266 76.2603 61.3312 76.1167 61.3413C75.8989 61.3563 75.7089 61.2007 75.6487 60.9698L75.3892 59.9758C75.3382 59.78 75.2363 59.6093 75.1019 59.4788C74.7961 59.1876 74.6571 58.7358 74.7868 58.3191C74.9351 57.8321 75.1575 57.4958 75.3521 57.2749C75.6162 56.9737 75.7367 56.557 75.6672 56.1454L74.2354 47.862C74.0918 47.0186 74.0177 46.1702 74.0177 45.3167C74.0177 44.7244 74.0547 44.132 74.1242 43.5396C74.291 42.154 74.1613 40.7433 73.735 39.428C73.6933 39.3025 73.6562 39.177 73.6192 39.0565C73.4987 38.67 73.3875 38.2784 73.2809 37.8868C73.1373 37.3597 73.0075 36.8276 72.8871 36.2954C72.6971 35.452 72.5396 34.5986 72.4144 33.7401C72.3774 33.4791 72.3403 33.213 72.3079 32.952C72.2198 32.2541 72.155 31.5513 72.1086 30.8485L71.877 27.3645C71.9048 26.3454 72.3588 25.3965 73.1095 24.7841C73.4709 24.4879 73.9018 24.3423 74.3327 24.3423C74.7266 24.3423 75.1251 24.4678 75.4726 24.7188C75.9313 25.0501 76.3066 25.4819 76.5893 25.9739C76.8627 26.4508 77.0434 26.9879 77.1175 27.5552C77.1175 27.5753 77.1221 27.6004 77.1268 27.6205L77.5623 31.3254C77.5901 31.5614 77.6133 31.7973 77.6365 32.0333C77.655 32.229 77.6689 32.4198 77.6828 32.6156C77.7013 32.8415 77.7152 33.0674 77.7245 33.2933C77.7662 34.0715 77.7708 34.8496 77.7523 35.6277C77.743 35.9942 77.7245 36.3607 77.7013 36.7322L77.567 38.7704L77.428 40.8638L77.4048 41.2303C77.4372 41.3207 77.4697 41.416 77.4975 41.5114C78.2805 43.896 78.5632 46.4413 78.3269 48.9664L77.706 56.4315C77.6782 56.7679 77.7801 57.0992 77.9794 57.3502C78.3037 57.7619 78.7624 58.4095 78.7624 58.8412C78.7949 59.4135 78.7068 59.9105 78.6049 60.282L78.591 60.277Z" fill="#FFD6BE"/>
<path d="M78.2767 66.2106C79.0924 66.2106 79.7537 65.5567 79.7537 64.7501C79.7537 63.9435 79.0924 63.2896 78.2767 63.2896C77.461 63.2896 76.7998 63.9435 76.7998 64.7501C76.7998 65.5567 77.461 66.2106 78.2767 66.2106Z" fill="#323232"/>
<path d="M77.7844 33.2845C77.6286 33.3493 77.4728 33.409 77.3169 33.4638C77.0053 33.5784 76.6984 33.668 76.3962 33.7477C76.0232 33.8424 75.6596 33.9121 75.3102 33.9669C75.2582 33.9769 75.2016 33.9818 75.1496 33.9918C73.8369 34.1611 72.7037 34.0565 71.901 33.9121C71.7971 33.8922 71.698 33.8723 71.6035 33.8523C71.4949 33.3443 71.4005 32.8562 71.3155 32.388C70.475 27.706 70.8764 25.2106 72.6045 24.588C73.039 24.4336 73.4356 24.3539 73.7992 24.3439C75.8957 24.2742 76.8684 26.4409 77.3405 28.9113C77.5389 29.9424 77.6475 31.0232 77.7136 32.0194C77.7372 32.368 77.7561 32.7067 77.7702 33.0305C77.7702 33.1201 77.7797 33.2048 77.7844 33.2895V33.2845Z" fill="#4768DF"/>
<path opacity="0.4" d="M78.6889 49.2486L78.0352 56.4738C78.0694 50.9638 77.3083 45.2595 77.2937 41.8048C77.0644 39.0401 75.9764 35.7846 75.8154 34.5893C76.5228 34.5018 77.2741 34.3415 78.0547 34.0791C78.1182 35.1869 78.1084 36.2996 78.0255 37.4075L77.884 39.3802L77.7376 41.4063L77.7132 41.761C77.7474 41.8485 77.7815 41.9408 77.8108 42.0331C78.6353 44.3411 78.9329 46.8046 78.6841 49.2486H78.6889Z" fill="#EAC2AC"/>
<path d="M66.9386 20.0319C66.9161 20.2139 66.871 20.3863 66.8146 20.5444C66.73 20.7696 66.606 20.966 66.4707 21.1145C66.3918 21.1959 66.3072 21.263 66.2226 21.3157C66.1043 21.3827 65.9746 21.4211 65.8449 21.4211C65.828 21.4211 65.8111 21.4211 65.7942 21.4211C65.6138 21.4067 65.4503 21.3205 65.3206 21.1767C65.2981 21.148 65.2755 21.1241 65.253 21.0905C65.236 21.0714 65.2248 21.0474 65.2079 21.0235C65.2079 21.0187 65.2022 21.0091 65.1966 21.0043C65.1628 20.9516 65.1402 20.8989 65.112 20.8366C64.9993 20.5732 64.9598 20.2378 64.9993 19.8834C65.0613 19.3612 65.2981 18.9205 65.6025 18.6858C65.704 18.6091 65.8111 18.5517 65.9238 18.5229C65.9915 18.5038 66.0648 18.4942 66.1324 18.5038H66.1494C66.4538 18.5277 66.6962 18.7576 66.8315 19.0978C66.9386 19.3612 66.9781 19.6918 66.9386 20.0414V20.0319Z" fill="#FFD6BE"/>
<path d="M66.9538 18.9943C66.7412 19.1701 66.5147 19.33 66.2789 19.4738C66.168 19.0956 65.9646 18.8398 65.7196 18.8132H65.7057C65.4007 17.6836 64.7858 16.8205 64 16.293C64.1988 16.0746 64.3328 15.7443 64.3883 15.5791C65.4007 16.016 66.45 16.9697 66.9538 18.9943Z" fill="#D5EDEB"/>
<path d="M67.8833 58.6751C67.0745 58.8522 66.2194 58.8185 66.2194 58.8185L66.8203 59.9572C66.9127 60.1343 66.7625 60.3283 66.5083 60.3662C66.4505 60.3747 66.387 60.3578 66.3523 60.3199L65.1621 59.08C64.9195 58.8269 64.9253 58.4937 65.1795 58.2491L65.9883 57.4563C66.2656 57.1821 66.3754 56.8363 66.283 56.5032C68.3282 56.8532 68.7095 56.4736 68.7095 56.4736L68.6922 56.7014C68.6806 56.8785 68.7153 57.0556 68.8077 57.2201C69.1371 57.7937 68.7384 58.4853 67.8833 58.6709V58.6751Z" fill="#FFD6BE"/>
<path d="M65.9695 18.3219C65.911 18.3172 65.8477 18.3219 65.7893 18.3407C65.6919 18.3688 65.5994 18.4251 65.5117 18.5002C65.3316 18.3876 65.1027 18.2984 64.903 18.2609C64.4989 18.1812 64.606 17.895 64.455 17.4682C64.309 17.0413 63.5347 17.0507 62.7264 17.0366C61.918 17.0225 62.1323 16.7411 61.9862 16.2016C61.9083 15.9108 61.4457 15.7701 61.0464 15.7044C61.1584 15.6763 61.2655 15.6575 61.3775 15.6387C63.4324 15.3104 65.3267 16.3564 65.9646 18.3172L65.9695 18.3219Z" fill="#4E3633"/>
<path opacity="0.5" d="M67.9338 17.6544C67.7129 17.9668 67.4215 18.2551 67.0878 18.5002C66.5755 16.6741 65.5039 15.814 64.4794 15.4199C63.3514 14.9874 62.2705 15.1172 62.0308 15.1556C62.0402 15.122 62.0496 15.0931 62.059 15.0595C62.5759 14.8625 64.6486 14.1753 65.9034 15.0066C67.1348 15.8236 67.0314 16.9673 67.9385 17.6544H67.9338Z" fill="#4E3633"/>
<path opacity="0.5" d="M28.5539 64.2577C27.3072 63.6285 26.0778 59.9975 25.6001 58.4459C26.0079 58.4192 26.4041 58.4139 26.7945 58.4299C26.9925 59.6349 27.2547 60.8772 27.6159 62.2795C27.8024 62.9993 28.1228 63.6658 28.5481 64.263L28.5539 64.2577Z" fill="#EAC2AC"/>
<path d="M12.8083 68.1578C12.8041 68.0538 12.7998 67.9403 12.7998 67.8458C12.7998 67.7607 12.7998 67.6851 12.8041 67.6095C12.8041 67.6095 14.8428 67.4488 15.6643 67.1841C15.7196 67.4866 15.7537 67.8174 15.7537 68.1578H12.8083Z" fill="white"/>
<path opacity="0.25" d="M63.0153 35.8922C58.9171 36.1346 52.4553 36.1094 50.2012 35.2962C50.0583 35.377 49.8438 35.4629 49.6723 35.4225C49.434 35.3669 49.3673 35.0033 49.3673 35.0033C49.3673 35.0033 49.1433 35.3518 48.7621 35.1952C48.4666 35.074 48.5572 34.7609 48.6382 34.5942C46.937 33.9831 45.2548 32.8517 43.7489 31.584C43.6155 31.4678 43.4773 31.3567 43.3439 31.2355C43.2962 31.19 43.2486 31.1496 43.1961 31.1042C43.0818 31.0032 42.9722 30.9022 42.8626 30.8011C42.8626 30.8011 42.853 30.7961 42.8483 30.791C42.6767 30.6345 42.5052 30.4728 42.3384 30.3163C43.9538 26.7808 45.6694 24.2302 43.2438 20.4473C43.2438 20.4473 43.2438 20.4473 43.2486 20.4523C43.2724 20.4776 43.3248 20.5331 43.3963 20.624C43.4011 20.6341 43.4106 20.6392 43.4153 20.6493C43.9634 21.3362 45.5264 23.6544 44.7401 26.7707C44.7401 26.7808 44.7354 26.7909 44.7306 26.801C44.3398 28.3465 45.0118 29.9779 46.3413 30.7304C47.6518 31.4729 49.2196 32.387 50.5586 33.2457C53.7991 33.5285 58.6931 34.7356 62.8962 35.1144C62.9295 35.3619 62.9676 35.6195 63.0105 35.8872L63.0153 35.8922Z" fill="#93CDB9"/>
<path d="M38.3999 41.0768C38.3378 41.1123 38.2757 41.1428 38.2084 41.1783C38.0479 41.2645 37.8823 41.3457 37.7115 41.432C37.4062 41.5792 37.0853 41.7263 36.7489 41.8684C35.3257 40.0061 33.2555 37.4231 31.3872 35.6318C31.263 35.51 31.1388 35.3933 31.0146 35.2816C31.1388 35.2055 31.1802 35.1294 31.1802 35.0634C31.1802 34.8706 30.8076 34.7285 30.8076 34.7285C30.8076 34.7285 30.9836 34.4494 30.968 34.2312C30.9577 34.0485 30.6368 34.0384 30.5229 34.0434L30.6368 33.7846L31.1129 32.6834L33.6489 26.8477L33.6903 26.7462C34.3424 25.2441 34.5908 23.6101 34.3993 21.9913C34.2596 20.7988 33.9853 19.4642 33.447 18.5C33.4574 18.5 33.4677 18.5 33.4677 18.5C33.4677 18.5 36.102 22.2247 34.2492 27.6292C33.9956 28.3701 33.6541 29.1465 33.2141 29.9432C32.3964 31.293 31.2734 33.9521 31.2734 33.9521C31.2734 33.9521 31.5684 34.0028 31.765 34.3124C31.9565 34.6219 31.6098 34.7894 31.6098 34.7894C31.6098 34.7894 32.0445 34.8757 32.1325 35.0786C32.2205 35.2816 32.0652 35.5404 32.0652 35.5404L38.3947 41.0717L38.3999 41.0768Z" fill="#AEE9D6"/>
<path d="M27.2571 46.9275C27.399 49.4448 27.9273 51.8012 28.4115 52.4589C28.8909 53.1071 29.7713 57.3988 29.8985 58.0754C29.6784 57.9903 29.4632 57.9287 29.248 57.8862C29.2137 57.8814 29.1844 57.872 29.1501 57.8672C28.1376 57.6874 27.1887 57.8956 26.5675 58.1086C26.1028 58.2647 25.8191 58.4208 25.8191 58.4208C25.9511 53.7979 25.506 50.235 25.6185 47.2256C25.7017 44.9827 26.093 43.0522 27.2669 41.2258C27.3109 41.1548 27.3599 41.0838 27.4039 41.0128C27.4283 40.975 27.4577 40.9371 27.4821 40.8945C27.6289 41.1311 27.8245 41.3393 28.0544 41.5097C29.0327 42.2194 30.0746 42.6121 31.1263 42.7683C31.2534 42.8582 31.3806 42.9481 31.5078 43.038C31.2485 43.0664 30.9893 43.0853 30.7349 43.1042C28.6952 43.2415 27.1397 44.9449 27.2522 46.918L27.2571 46.9275Z" fill="#2A2A2A"/>
<path d="M39.3848 41.0651C39.001 41.2469 38.3522 41.5424 37.5526 41.8683C37.5069 41.7698 37.4612 41.6637 37.4155 41.5652C37.941 41.1939 38.4344 40.7847 38.873 40.3831C39.0421 40.2316 39.2066 40.0724 39.3619 39.9209C39.3711 40.3073 39.3802 40.6938 39.3848 41.0651Z" fill="#024480"/>
<path opacity="0.25" d="M44.2366 10.3204C45.1685 11.2109 45.6564 11.546 47.0177 11.2157C46.3395 11.6418 45.6076 11.6657 44.8123 11.6322C43.9926 11.5987 43.1973 11.3737 42.4899 10.9763C42.4411 10.9476 42.3874 10.9189 42.3386 10.8901C41.5189 10.3874 40.9285 10.172 40.5333 11.1678C40.5138 11.2157 40.4943 11.2636 40.4699 11.3115C40.4601 11.2923 40.4455 11.2684 40.4309 11.2492C40.4211 11.2301 40.4113 11.2157 40.3967 11.2013C40.3918 11.1918 40.3821 11.1822 40.3723 11.1726C40.3577 11.1582 40.343 11.1391 40.3284 11.1247C40.3235 11.1152 40.3138 11.1104 40.3089 11.1008C40.2942 11.0864 40.2796 11.0769 40.2698 11.0673C40.2503 11.0529 40.2357 11.0386 40.2162 11.029C40.182 11.0098 40.1479 10.9907 40.1137 10.9763C40.0844 10.962 40.0503 10.9524 40.0161 10.9428C39.8746 10.9141 39.7283 10.938 39.5916 11.005C39.2842 11.1535 39.011 11.5221 38.9086 11.9913C38.8305 12.336 38.8598 12.6664 38.9622 12.9249L38.4109 13.4707L37.4155 14.6053L38.2011 11.1199C38.1816 11.0146 38.1718 10.9093 38.1718 10.8088C38.1718 10.7561 38.1718 10.6986 38.1718 10.6412C38.1718 10.5981 38.1767 10.5598 38.1816 10.5215C38.3328 8.91764 39.7722 7.51486 41.919 7.83563C43.7633 8.11332 44.5293 10.397 47.2617 10.2486C47.1348 10.421 45.5101 10.7178 44.2415 10.3252L44.2366 10.3204Z" fill="#535353"/>
<path opacity="0.1" d="M38.3954 43.8158C36.991 42.5531 30.2148 36.3933 29.5386 34.4992C33.4114 26.2812 32.8912 18.9631 32.7352 17.5264C33.2128 17.7302 33.5816 18.1627 33.87 18.7195C34.3618 19.6641 34.6124 20.9716 34.7401 22.14C34.9151 23.7259 34.6881 25.3317 34.0923 26.7983L31.2976 33.6888L31.1936 33.9424C31.2976 33.9424 31.5908 33.9473 31.6003 34.1263C31.6145 34.3451 31.4537 34.6135 31.4537 34.6135C31.4537 34.6135 31.7942 34.7527 31.7942 34.9417C31.7942 35.0063 31.7516 35.0809 31.6428 35.1554C31.7563 35.2648 31.8698 35.3791 31.9833 35.4985C32.9905 36.5375 34.0686 37.85 35.0475 39.1227C35.7237 40.0027 36.3526 40.8627 36.8822 41.6085C36.9295 41.6781 36.9768 41.7427 37.0241 41.8073C37.4307 42.384 37.7712 42.8812 38.0218 43.2441C38.1968 43.5026 38.3292 43.6965 38.4001 43.8059L38.3954 43.8158Z" fill="#94AF8F"/>
<path d="M41.354 18.0516L41.0115 19.4082L40.9952 19.4738L39.3848 15.5791C39.5886 15.9073 40.8525 17.5812 40.8525 17.5812C40.8851 17.6304 40.9218 17.6796 40.9585 17.7234C40.9871 17.7617 41.0197 17.7945 41.0482 17.8219C41.0768 17.8492 41.1094 17.882 41.142 17.9094C41.1746 17.9367 41.2072 17.9641 41.2398 17.986C41.2765 18.0133 41.3091 18.0352 41.3458 18.0516H41.354Z" fill="#EAC2AC"/>
</g>
<defs>
<linearGradient id="paint0_linear_69_3973" x1="106.343" y1="61.8314" x2="108.308" y2="61.8314" gradientUnits="userSpaceOnUse">
<stop stop-color="#D31D29"/>
<stop offset="1" stop-color="#AE082E"/>
</linearGradient>
<linearGradient id="paint1_linear_69_3973" x1="112.245" y1="59.8813" x2="114.215" y2="59.8813" gradientUnits="userSpaceOnUse">
<stop stop-color="#D31D29"/>
<stop offset="1" stop-color="#AE082E"/>
</linearGradient>
<linearGradient id="paint2_linear_69_3973" x1="112.251" y1="61.8262" x2="114.216" y2="61.8262" gradientUnits="userSpaceOnUse">
<stop stop-color="#D31D29"/>
<stop offset="1" stop-color="#AE082E"/>
</linearGradient>
<clipPath id="clip0_69_3973">
<rect width="128" height="74" fill="white"/>
</clipPath>
</defs>
</svg>
