<svg width="58" height="23" viewBox="0 0 58 23" fill="none" xmlns="http://www.w3.org/2000/svg">
<path d="M49.4032 4.39135L45.7383 3.50732L41.3271 21.7949L44.992 22.6789L49.4032 4.39135Z" fill="white"/>
<path d="M8.59631 4.39135L12.2612 3.50732L16.6724 21.7949L13.0075 22.6789L8.59631 4.39135Z" fill="white"/>
<path d="M53.7011 8.00805L50.0361 7.12402L46.8012 20.5349L50.4662 21.4189L53.7011 8.00805Z" fill="white"/>
<path d="M4.29821 8.00805L7.96313 7.12402L11.198 20.5349L7.5331 21.4189L4.29821 8.00805Z" fill="white"/>
<path d="M58.0001 11.6252L54.3352 10.7412L52.2766 19.2754L55.9416 20.1594L58.0001 11.6252Z" fill="white"/>
<path d="M0.000117407 11.6252L3.66504 10.7412L5.7236 19.2754L2.05868 20.1594L0.000117407 11.6252Z" fill="white"/>
<rect x="39.6289" y="9.77393" width="5.72664" height="3.76241" transform="rotate(13.5615 39.6289 9.77393)" fill="white"/>
<rect width="8.94917" height="3.76241" transform="matrix(-0.972119 0.234488 0.234488 0.972119 21.5044 9.01807)" fill="white"/>
<path d="M29.1099 21.2769C27.6024 21.2769 26.183 21.0041 24.8517 20.4586C23.5401 19.913 22.3948 19.1628 21.4159 18.2081C20.437 17.2339 19.6637 16.1038 19.0959 14.8178C18.5478 13.5124 18.2737 12.1095 18.2737 10.6092C18.2737 9.10893 18.5576 7.7158 19.1253 6.42983C19.6931 5.14386 20.4762 4.02352 21.4746 3.06878C22.4927 2.09457 23.6771 1.34442 25.0279 0.818342C26.3788 0.272781 27.8275 0 29.3742 0C31.1557 0 32.7709 0.321491 34.2196 0.964474C35.6879 1.60746 36.9018 2.49399 37.8611 3.62409L34.7189 6.75132C34.0532 5.89401 33.2701 5.25103 32.3695 4.82237C31.469 4.39372 30.4509 4.17939 29.3154 4.17939C28.1016 4.17939 27.0151 4.45217 26.0558 4.99773C25.0965 5.52381 24.3427 6.27396 23.7946 7.24817C23.266 8.2029 23.0017 9.32325 23.0017 10.6092C23.0017 11.8952 23.266 13.0253 23.7946 13.9995C24.3232 14.9737 25.0475 15.7336 25.9677 16.2792C26.8878 16.8247 27.945 17.0975 29.1392 17.0975C30.3531 17.0975 31.3809 16.8734 32.2227 16.4253C33.0841 15.9577 33.74 15.2952 34.1903 14.4379C34.6601 13.5611 34.8951 12.4992 34.8951 11.2522L37.8611 13.678H28.9337V9.11867H39.5937V9.93701C39.5937 12.4115 39.1434 14.4963 38.2428 16.1915C37.3618 17.8671 36.1284 19.1336 34.5427 19.9909C32.9764 20.8482 31.1655 21.2769 29.1099 21.2769Z" fill="#C1FF73"/>
</svg>
