<svg width="24" height="24" viewBox="0 0 24 24" fill="none" xmlns="http://www.w3.org/2000/svg">
<path d="M16.4999 9.60002C17.6597 9.60002 18.5999 8.65982 18.5999 7.50002C18.5999 6.34023 17.6597 5.40002 16.4999 5.40002C15.3401 5.40002 14.3999 6.34023 14.3999 7.50002C14.3999 8.65982 15.3401 9.60002 16.4999 9.60002Z" fill="#616161"/>
<path d="M7.4999 9.60002C8.6597 9.60002 9.5999 8.65982 9.5999 7.50002C9.5999 6.34023 8.6597 5.40002 7.4999 5.40002C6.3401 5.40002 5.3999 6.34023 5.3999 7.50002C5.3999 8.65982 6.3401 9.60002 7.4999 9.60002Z" fill="#616161"/>
<path d="M16.4999 18.6C17.6597 18.6 18.5999 17.6598 18.5999 16.5C18.5999 15.3402 17.6597 14.4 16.4999 14.4C15.3401 14.4 14.3999 15.3402 14.3999 16.5C14.3999 17.6598 15.3401 18.6 16.4999 18.6Z" fill="#616161"/>
<path d="M7.4999 18.6C8.6597 18.6 9.5999 17.6598 9.5999 16.5C9.5999 15.3402 8.6597 14.4 7.4999 14.4C6.3401 14.4 5.3999 15.3402 5.3999 16.5C5.3999 17.6598 6.3401 18.6 7.4999 18.6Z" fill="#616161"/>
</svg>
