<svg width="14" height="14" viewBox="0 0 14 14" fill="none" xmlns="http://www.w3.org/2000/svg">
<path fill-rule="evenodd" clip-rule="evenodd" d="M7.65785 3.14294C8.75064 2.04999 9.794 2.07746 10.8593 3.14294C11.4085 3.68667 11.6721 4.21392 11.6666 4.75764C11.6666 5.2849 11.403 5.80665 10.8593 6.34489L10.2004 7.00944C10.1564 7.05338 10.1015 7.07535 10.0411 7.07535C10.0191 7.07535 9.99718 7.06986 9.97522 7.06436C8.52 6.64696 7.35583 5.48261 6.93848 4.02718C6.91652 3.95029 6.93848 3.86242 6.9934 3.8075L7.65785 3.14294ZM8.52549 7.3225C8.67376 7.41038 8.82752 7.48727 8.98677 7.56416C9.20112 7.65706 9.26319 7.94127 9.09801 8.10647L6.00495 11.2C5.93905 11.2714 5.80177 11.3373 5.70292 11.3538L3.59423 11.6504C3.52834 11.6613 3.46244 11.6668 3.39654 11.6668C3.10001 11.6668 2.82544 11.5625 2.62775 11.3702C2.39711 11.1341 2.29277 10.7826 2.34769 10.4091L2.64422 8.30561C2.6607 8.21224 2.72659 8.07493 2.79798 8.00353L5.88591 4.91515C6.05445 4.74658 6.33797 4.81075 6.43877 5.02677C6.51565 5.18055 6.59253 5.32884 6.68039 5.47713C6.75178 5.59795 6.82866 5.71878 6.89455 5.80117C6.97147 5.91912 7.05796 6.02271 7.11379 6.08958C7.11775 6.09432 7.12155 6.09887 7.12519 6.10324C7.13296 6.11323 7.14028 6.12277 7.14716 6.13173C7.17428 6.16709 7.19442 6.19333 7.20756 6.2021C7.38878 6.42178 7.59196 6.6195 7.77317 6.77328C7.8171 6.81722 7.85554 6.85017 7.86653 6.85567C7.97086 6.94354 8.08069 7.03142 8.17404 7.09183C8.28936 7.17421 8.40468 7.2511 8.52549 7.3225Z" fill="#616161"/>
</svg>
