<svg width="34" height="34" viewBox="0 0 34 34" fill="none" xmlns="http://www.w3.org/2000/svg">
<path d="M29.7075 1.4165H25.5425C24.31 1.4165 23.4034 1.9265 22.9925 2.83317C22.7659 3.244 22.6667 3.72567 22.6667 4.29234V8.45734C22.6667 10.2565 23.7434 11.3332 25.5425 11.3332H29.7075C30.2742 11.3332 30.7559 11.234 31.1667 11.0073C32.0734 10.5965 32.5834 9.68984 32.5834 8.45734V4.29234C32.5834 2.49317 31.5067 1.4165 29.7075 1.4165ZM31.0392 6.984C30.8975 7.12567 30.685 7.22484 30.4584 7.239H28.4609V7.9615L28.475 9.20817C28.4609 9.449 28.3759 9.64734 28.2059 9.81734C28.0642 9.959 27.8517 10.0582 27.625 10.0582C27.1575 10.0582 26.775 9.67567 26.775 9.20817V7.22484L24.7917 7.239C24.3242 7.239 23.9417 6.84234 23.9417 6.37484C23.9417 5.90734 24.3242 5.52484 24.7917 5.52484L26.0384 5.539H26.775V3.55567C26.775 3.08817 27.1575 2.6915 27.625 2.6915C28.0925 2.6915 28.475 3.08817 28.475 3.55567L28.4609 4.5615V5.52484H30.4584C30.9259 5.52484 31.3084 5.90734 31.3084 6.37484C31.2942 6.61567 31.195 6.814 31.0392 6.984Z" fill="#BDBDBD"/>
<path d="M12.75 14.7048C14.6121 14.7048 16.1216 13.1952 16.1216 11.3331C16.1216 9.47097 14.6121 7.96143 12.75 7.96143C10.8878 7.96143 9.3783 9.47097 9.3783 11.3331C9.3783 13.1952 10.8878 14.7048 12.75 14.7048Z" fill="#BDBDBD"/>
<path d="M29.7075 11.3335H29.0416V17.8643L28.8575 17.7085C27.7525 16.7593 25.9675 16.7593 24.8625 17.7085L18.9691 22.766C17.8641 23.7152 16.0791 23.7152 14.9741 22.766L14.4925 22.3693C13.4866 21.491 11.8858 21.406 10.7525 22.171L5.45415 25.7268C5.14248 24.9335 4.95831 24.0127 4.95831 22.936V11.0643C4.95831 7.06933 7.06915 4.9585 11.0641 4.9585H22.6666V4.29266C22.6666 3.726 22.7658 3.24433 22.9925 2.8335H11.0641C5.90748 2.8335 2.83331 5.90766 2.83331 11.0643V22.936C2.83331 24.4802 3.10248 25.826 3.62665 26.9593C4.84498 29.651 7.45165 31.1668 11.0641 31.1668H22.9358C28.0925 31.1668 31.1666 28.0927 31.1666 22.936V11.0077C30.7558 11.2343 30.2741 11.3335 29.7075 11.3335Z" fill="#BDBDBD"/>
</svg>
