<svg width="24" height="24" viewBox="0 0 24 24" fill="none" xmlns="http://www.w3.org/2000/svg">
<path d="M21 7.74988H3C2.59 7.74988 2.25 7.40988 2.25 6.99988C2.25 6.58988 2.59 6.24988 3 6.24988H21C21.41 6.24988 21.75 6.58988 21.75 6.99988C21.75 7.40988 21.41 7.74988 21 7.74988Z" fill="#616161"/>
<path d="M20.9999 12.75H6.8999C6.4899 12.75 6.1499 12.41 6.1499 12C6.1499 11.59 6.4899 11.25 6.8999 11.25H20.9999C21.4099 11.25 21.7499 11.59 21.7499 12C21.7499 12.41 21.4099 12.75 20.9999 12.75Z" fill="#616161"/>
<path d="M21 17.7501H3C2.59 17.7501 2.25 17.4101 2.25 17.0001C2.25 16.5901 2.59 16.2501 3 16.2501H21C21.41 16.2501 21.75 16.5901 21.75 17.0001C21.75 17.4101 21.41 17.7501 21 17.7501Z" fill="#616161"/>
</svg>
