<svg width="24" height="25" viewBox="0 0 24 25" fill="none" xmlns="http://www.w3.org/2000/svg">
<path d="M19.77 11.5894H15.73C13.72 11.5894 12.75 10.6994 12.75 8.85936V4.31936C12.75 2.47936 13.73 1.58936 15.73 1.58936H19.77C21.78 1.58936 22.75 2.47936 22.75 4.31936V8.84936C22.75 10.6994 21.77 11.5894 19.77 11.5894ZM15.73 3.08936C14.39 3.08936 14.25 3.46936 14.25 4.31936V8.84936C14.25 9.70936 14.39 10.0794 15.73 10.0794H19.77C21.11 10.0794 21.25 9.69936 21.25 8.84936V4.31936C21.25 3.45936 21.11 3.08936 19.77 3.08936H15.73Z" fill="white"/>
<path d="M19.77 23.0894H15.73C13.72 23.0894 12.75 22.1094 12.75 20.1094V16.0694C12.75 14.0594 13.73 13.0894 15.73 13.0894H19.77C21.78 13.0894 22.75 14.0694 22.75 16.0694V20.1094C22.75 22.1094 21.77 23.0894 19.77 23.0894ZM15.73 14.5894C14.55 14.5894 14.25 14.8894 14.25 16.0694V20.1094C14.25 21.2894 14.55 21.5894 15.73 21.5894H19.77C20.95 21.5894 21.25 21.2894 21.25 20.1094V16.0694C21.25 14.8894 20.95 14.5894 19.77 14.5894H15.73Z" fill="#C1FF73"/>
<path d="M8.27 11.5894H4.23C2.22 11.5894 1.25 10.6994 1.25 8.85936V4.31936C1.25 2.47936 2.23 1.58936 4.23 1.58936H8.27C10.28 1.58936 11.25 2.47936 11.25 4.31936V8.84936C11.25 10.6994 10.27 11.5894 8.27 11.5894ZM4.23 3.08936C2.89 3.08936 2.75 3.46936 2.75 4.31936V8.84936C2.75 9.70936 2.89 10.0794 4.23 10.0794H8.27C9.61 10.0794 9.75 9.69936 9.75 8.84936V4.31936C9.75 3.45936 9.61 3.08936 8.27 3.08936H4.23Z" fill="white"/>
<path d="M8.27 23.0894H4.23C2.22 23.0894 1.25 22.1094 1.25 20.1094V16.0694C1.25 14.0594 2.23 13.0894 4.23 13.0894H8.27C10.28 13.0894 11.25 14.0694 11.25 16.0694V20.1094C11.25 22.1094 10.27 23.0894 8.27 23.0894ZM4.23 14.5894C3.05 14.5894 2.75 14.8894 2.75 16.0694V20.1094C2.75 21.2894 3.05 21.5894 4.23 21.5894H8.27C9.45 21.5894 9.75 21.2894 9.75 20.1094V16.0694C9.75 14.8894 9.45 14.5894 8.27 14.5894H4.23Z" fill="white"/>
</svg>
