<svg width="24" height="25" viewBox="0 0 24 25" fill="none" xmlns="http://www.w3.org/2000/svg">
<path d="M18.32 13.0893H15C12.51 13.0893 11.25 11.6793 11.25 8.88932V6.01932C11.25 4.99932 11.37 3.53932 12.43 2.73932C13.32 2.07932 14.6 2.02932 16.49 2.57932C18.97 3.29932 21.04 5.36932 21.76 7.84932C22.31 9.72932 22.26 11.0193 21.6 11.8993C20.8 12.9693 19.34 13.0893 18.32 13.0893ZM14.28 3.69932C13.87 3.69932 13.55 3.77932 13.34 3.93932C12.95 4.22932 12.76 4.90932 12.76 6.01932V8.89932C12.76 11.1393 13.62 11.5993 15.01 11.5993H18.33C19.43 11.5993 20.11 11.4093 20.41 11.0193C20.76 10.5593 20.73 9.63932 20.34 8.28932C19.76 6.31932 18.06 4.60932 16.09 4.03932C15.35 3.80932 14.75 3.69932 14.28 3.69932Z" fill="#C1FF73"/>
<path d="M11.0699 23.0892C10.5399 23.0892 9.99988 23.0492 9.45988 22.9592C5.36988 22.2992 2.03988 18.9792 1.37988 14.8892C0.529883 9.62919 3.91988 4.66919 9.10988 3.60919C9.51988 3.52919 9.90988 3.78919 9.99988 4.18919C10.0799 4.59919 9.81988 4.98919 9.41988 5.07919C5.02988 5.97919 2.14988 10.1792 2.87988 14.6492C3.43988 18.1092 6.24988 20.9192 9.70988 21.4792C14.1999 22.1992 18.3899 19.3092 19.2799 14.8992C19.3599 14.4892 19.7599 14.2292 20.1599 14.3092C20.5699 14.3892 20.8299 14.7892 20.7499 15.1892C19.7999 19.8592 15.7199 23.0892 11.0699 23.0892Z" fill="white"/>
</svg>
