<svg width="24" height="25" viewBox="0 0 24 25" fill="none" xmlns="http://www.w3.org/2000/svg">
<path d="M16 21.3394V17.3394C16 16.2785 15.6313 15.2611 14.9749 14.5109C14.3185 13.7608 13.4283 13.3394 12.5 13.3394H5.5C4.57174 13.3394 3.6815 13.7608 3.02513 14.5109C2.36875 15.2611 2 16.2785 2 17.3394V21.3394" stroke="white" stroke-width="1.6" stroke-linecap="round" stroke-linejoin="round"/>
<path d="M9.5 10.3394C11.433 10.3394 13 8.77235 13 6.83936C13 4.90636 11.433 3.33936 9.5 3.33936C7.567 3.33936 6 4.90636 6 6.83936C6 8.77235 7.567 10.3394 9.5 10.3394Z" stroke="#C1FF73" stroke-width="1.6" stroke-linecap="round" stroke-linejoin="round"/>
<path d="M22 21.3394V17.2951C21.9993 16.3892 21.7044 15.5091 21.1614 14.7932C20.6184 14.0772 19.8581 13.5658 19 13.3394" stroke="white" stroke-width="1.6" stroke-linecap="round" stroke-linejoin="round"/>
<path d="M16 3.33936C16.8582 3.53834 17.6188 3.99031 18.162 4.62402C18.7052 5.25773 19 6.03714 19 6.83936C19 7.64157 18.7052 8.42098 18.162 9.05469C17.6188 9.6884 16.8582 10.1404 16 10.3394" stroke="white" stroke-width="1.6" stroke-linecap="round" stroke-linejoin="round"/>
</svg>
