<svg width="24" height="25" viewBox="0 0 24 25" fill="none" xmlns="http://www.w3.org/2000/svg">
<path d="M12 16.0894C9.93 16.0894 8.25 14.4094 8.25 12.3394C8.25 10.2694 9.93 8.58936 12 8.58936C14.07 8.58936 15.75 10.2694 15.75 12.3394C15.75 14.4094 14.07 16.0894 12 16.0894ZM12 10.0894C10.76 10.0894 9.75 11.0994 9.75 12.3394C9.75 13.5794 10.76 14.5894 12 14.5894C13.24 14.5894 14.25 13.5794 14.25 12.3394C14.25 11.0994 13.24 10.0894 12 10.0894Z" fill="#C1FF73"/>
<path d="M15.21 22.5292C15 22.5292 14.79 22.4992 14.58 22.4492C13.96 22.2792 13.44 21.8892 13.11 21.3392L12.99 21.1392C12.4 20.1192 11.59 20.1192 11 21.1392L10.89 21.3292C10.56 21.8892 10.04 22.2892 9.42 22.4492C8.79 22.6192 8.14 22.5292 7.59 22.1992L5.87 21.2092C5.26 20.8592 4.82 20.2892 4.63 19.5992C4.45 18.9092 4.54 18.1992 4.89 17.5892C5.18 17.0792 5.26 16.6192 5.09 16.3292C4.92 16.0392 4.49 15.8692 3.9 15.8692C2.44 15.8692 1.25 14.6792 1.25 13.2192V11.4592C1.25 9.99915 2.44 8.80915 3.9 8.80915C4.49 8.80915 4.92 8.63915 5.09 8.34915C5.26 8.05915 5.19 7.59915 4.89 7.08915C4.54 6.47915 4.45 5.75915 4.63 5.07915C4.81 4.38915 5.25 3.81915 5.87 3.46915L7.6 2.47915C8.73 1.80915 10.22 2.19915 10.9 3.34915L11.02 3.54915C11.61 4.56915 12.42 4.56915 13.01 3.54915L13.12 3.35915C13.8 2.19915 15.29 1.80915 16.43 2.48915L18.15 3.47915C18.76 3.82915 19.2 4.39915 19.39 5.08915C19.57 5.77915 19.48 6.48915 19.13 7.09915C18.84 7.60915 18.76 8.06915 18.93 8.35915C19.1 8.64915 19.53 8.81915 20.12 8.81915C21.58 8.81915 22.77 10.0092 22.77 11.4692V13.2292C22.77 14.6892 21.58 15.8792 20.12 15.8792C19.53 15.8792 19.1 16.0492 18.93 16.3392C18.76 16.6292 18.83 17.0892 19.13 17.5992C19.48 18.2092 19.58 18.9292 19.39 19.6092C19.21 20.2992 18.77 20.8692 18.15 21.2192L16.42 22.2092C16.04 22.4192 15.63 22.5292 15.21 22.5292ZM12 18.8292C12.89 18.8292 13.72 19.3892 14.29 20.3792L14.4 20.5692C14.52 20.7792 14.72 20.9292 14.96 20.9892C15.2 21.0492 15.44 21.0192 15.64 20.8992L17.37 19.8992C17.63 19.7492 17.83 19.4992 17.91 19.1992C17.99 18.8992 17.95 18.5892 17.8 18.3292C17.23 17.3492 17.16 16.3392 17.6 15.5692C18.04 14.7992 18.95 14.3592 20.09 14.3592C20.73 14.3592 21.24 13.8492 21.24 13.2092V11.4492C21.24 10.8192 20.73 10.2992 20.09 10.2992C18.95 10.2992 18.04 9.85915 17.6 9.08915C17.16 8.31915 17.23 7.30915 17.8 6.32915C17.95 6.06915 17.99 5.75915 17.91 5.45915C17.83 5.15915 17.64 4.91915 17.38 4.75915L15.65 3.76915C15.22 3.50915 14.65 3.65915 14.39 4.09915L14.28 4.28915C13.71 5.27915 12.88 5.83915 11.99 5.83915C11.1 5.83915 10.27 5.27915 9.7 4.28915L9.59 4.08915C9.34 3.66915 8.78 3.51915 8.35 3.76915L6.62 4.76915C6.36 4.91915 6.16 5.16915 6.08 5.46915C6 5.76915 6.04 6.07915 6.19 6.33915C6.76 7.31915 6.83 8.32915 6.39 9.09915C5.95 9.86915 5.04 10.3092 3.9 10.3092C3.26 10.3092 2.75 10.8192 2.75 11.4592V13.2192C2.75 13.8492 3.26 14.3692 3.9 14.3692C5.04 14.3692 5.95 14.8092 6.39 15.5792C6.83 16.3492 6.76 17.3592 6.19 18.3392C6.04 18.5992 6 18.9092 6.08 19.2092C6.16 19.5092 6.35 19.7492 6.61 19.9092L8.34 20.8992C8.55 21.0292 8.8 21.0592 9.03 20.9992C9.27 20.9392 9.47 20.7792 9.6 20.5692L9.71 20.3792C10.28 19.3992 11.11 18.8292 12 18.8292Z" fill="white"/>
</svg>
