<svg width="24" height="25" viewBox="0 0 24 25" fill="none" xmlns="http://www.w3.org/2000/svg">
<path d="M12 13.0894C8.83 13.0894 6.25 10.5094 6.25 7.33936C6.25 4.16936 8.83 1.58936 12 1.58936C15.17 1.58936 17.75 4.16936 17.75 7.33936C17.75 10.5094 15.17 13.0894 12 13.0894ZM12 3.08936C9.66 3.08936 7.75 4.99936 7.75 7.33936C7.75 9.67936 9.66 11.5894 12 11.5894C14.34 11.5894 16.25 9.67936 16.25 7.33936C16.25 4.99936 14.34 3.08936 12 3.08936Z" fill="#C1FF73"/>
<path d="M15.8201 23.0892C15.4401 23.0892 15.0801 22.9492 14.8201 22.6892C14.5101 22.3792 14.3701 21.9292 14.4401 21.4592L14.6301 20.1093C14.6801 19.7593 14.8901 19.3492 15.1401 19.0892L18.68 15.5493C20.1 14.1293 21.3501 14.9393 21.9601 15.5493C22.4801 16.0693 22.7501 16.6292 22.7501 17.1892C22.7501 17.7592 22.4901 18.2892 21.9601 18.8192L18.42 22.3593C18.17 22.6093 17.7501 22.8193 17.4001 22.8693L16.05 23.0592C15.97 23.0792 15.9001 23.0892 15.8201 23.0892ZM20.31 16.2592C20.13 16.2592 19.97 16.3793 19.74 16.6093L16.2001 20.1492C16.1701 20.1792 16.12 20.2792 16.12 20.3192L15.9401 21.5692L17.1901 21.3892C17.2301 21.3792 17.33 21.3293 17.36 21.2993L20.9001 17.7592C21.0601 17.5992 21.2501 17.3692 21.2501 17.1892C21.2501 17.0392 21.1301 16.8293 20.9001 16.6093C20.6601 16.3693 20.48 16.2592 20.31 16.2592Z" fill="white"/>
<path d="M20.9201 19.5592C20.8501 19.5592 20.7801 19.5492 20.7201 19.5292C19.4001 19.1592 18.3501 18.1092 17.9801 16.7892C17.8701 16.3892 18.1001 15.9793 18.5001 15.8693C18.9001 15.7593 19.3101 15.9892 19.4201 16.3892C19.6501 17.2092 20.3001 17.8592 21.1201 18.0892C21.5201 18.1992 21.7501 18.6192 21.6401 19.0092C21.5501 19.3392 21.2501 19.5592 20.9201 19.5592Z" fill="white"/>
<path d="M3.41016 23.0894C3.00016 23.0894 2.66016 22.7494 2.66016 22.3394C2.66016 18.0694 6.85018 14.5894 12.0002 14.5894C13.0902 14.5894 14.1702 14.7494 15.1802 15.0494C15.5802 15.1694 15.8002 15.5894 15.6802 15.9794C15.5602 16.3794 15.1402 16.5994 14.7502 16.4794C13.8702 16.2194 12.9502 16.0793 12.0002 16.0793C7.68018 16.0793 4.16016 18.8793 4.16016 22.3293C4.16016 22.7493 3.82016 23.0894 3.41016 23.0894Z" fill="white"/>
</svg>
